<svg width="1153" height="1535" viewBox="0 0 1153 1535" fill="none" xmlns="http://www.w3.org/2000/svg">
<g clip-path="url(#clip0_1_103)">
<mask id="mask0_1_103" style="mask-type:luminance" maskUnits="userSpaceOnUse" x="0" y="0" width="1153" height="1585">
<path d="M1152.77 0.22998V1584.23H0.769897V0.22998H1152.77Z" fill="white"/>
</mask>
<g mask="url(#mask0_1_103)">
<path d="M-69.8001 1900.5C-35.2001 1837.1 0.19989 1759.7 0.19989 1665.3C0.19989 1570.8 -35.2001 1493.4 -69.8001 1430L-64.5001 1427.1C-29.5001 1491.1 6.19989 1569.5 6.19989 1665.3C6.19989 1761 -29.5001 1839.4 -64.5001 1903.4L-69.8001 1900.5Z" fill="white"/>
<path d="M-69.8001 674.9C-35.2001 611.6 0.19989 534.1 0.19989 439.7C0.19989 345.3 -35.2001 267.8 -69.8001 204.5L-64.5001 201.6C-29.5001 265.6 6.19989 343.9 6.19989 439.7C6.19989 535.5 -29.5001 613.8 -64.5001 677.8L-69.8001 674.9Z" fill="white"/>
<path d="M-69.8001 1970.1C-15.6001 1878.7 40.4999 1784.1 40.4999 1665.3C40.4999 1546.4 -15.6001 1451.9 -69.8001 1360.4L-64.6001 1357.3C-10.0001 1449.5 46.4999 1544.8 46.4999 1665.3C46.4999 1785.7 -10.0001 1881 -64.6001 1973.2L-69.8001 1970.1Z" fill="white"/>
<path d="M-69.8001 744.6C-15.5001 653.1 40.4999 558.5 40.4999 439.7C40.4999 320.9 -15.6001 226.3 -69.8001 134.8L-64.6001 131.8C-10.0001 223.9 46.4999 319.2 46.4999 439.7C46.4999 560.2 -10.0001 655.4 -64.6001 747.6L-69.8001 744.6Z" fill="white"/>
<path d="M-69.8001 2039.9C-56.9001 2016.4 -43.0001 1992.9 -29.5001 1970.1C24.6999 1878.7 80.6999 1784.1 80.6999 1665.3C80.6999 1546.4 24.6999 1451.8 -29.5001 1360.4C-43.0001 1337.7 -56.9001 1314.1 -69.8001 1290.6L-64.5001 1287.7C-51.7001 1311.2 -37.8001 1334.6 -24.4001 1357.3C30.2999 1449.5 86.6999 1544.8 86.6999 1665.3C86.6999 1785.7 30.2999 1881 -24.4001 1973.2C-37.8001 1995.9 -51.7001 2019.3 -64.5001 2042.8L-69.8001 2039.9Z" fill="white"/>
<path d="M-69.8001 814.4C-56.9001 790.8 -43.0001 767.3 -29.5001 744.5C24.6999 653.1 80.6999 558.5 80.6999 439.7C80.6999 320.9 24.6999 226.3 -29.5001 134.8C-43.0001 112.1 -56.9001 88.6 -69.8001 65L-64.5001 62.1C-51.7001 85.6 -37.8001 109.1 -24.4001 131.8C30.2999 223.9 86.6999 319.2 86.6999 439.7C86.6999 560.2 30.2999 655.5 -24.3001 747.6C-37.8001 770.3 -51.7001 793.8 -64.5001 817.2L-69.8001 814.4Z" fill="white"/>
<path d="M-70.0001 2124.8C-48.7001 2070.5 -18.5001 2019.5 10.6999 1970.1C64.8999 1878.7 121 1784.1 121 1665.3C121 1546.4 64.8999 1451.8 10.6999 1360.4C-18.5001 1311.1 -48.7001 1260 -70.0001 1205.7L-64.4001 1203.5C-43.3001 1257.4 -13.2001 1308.2 15.8999 1357.3C70.4999 1449.5 127 1544.8 127 1665.3C127 1785.7 70.4999 1881 15.8999 1973.2C-13.2001 2022.3 -43.3001 2073.1 -64.4001 2127L-70.0001 2124.8Z" fill="white"/>
<path d="M-70.0001 899.3C-48.7001 844.9 -18.5001 793.9 10.6999 744.6C64.8999 653.1 121 558.5 121 439.7C121 320.9 64.8999 226.3 10.6999 134.8C-18.3001 85.8 -48.4001 35.1 -69.6001 -18.8L-64.0001 -21C-42.9001 32.5 -13.0001 83 15.8999 131.8C70.4999 223.9 127 319.2 127 439.7C127 560.2 70.4999 655.5 15.8999 747.6C-13.2001 796.7 -43.3001 847.5 -64.4001 901.4L-70.0001 899.3Z" fill="white"/>
<path d="M-60.1001 1052.5C-60.1001 932 -3.6001 836.7 50.9999 744.6C105.2 653.1 161.2 558.5 161.2 439.7C161.2 320.9 105.2 226.3 50.9999 134.8C21.8999 85.8 -8.1001 35.1 -29.3001 -18.8L-23.7001 -21C-2.7001 32.5 27.1999 83 56.0999 131.8C110.8 223.9 167.2 319.2 167.2 439.7C167.2 560.2 110.8 655.5 56.0999 747.6C1.8999 839.1 -54.1001 933.6 -54.1001 1052.5C-54.1001 1171.3 1.8999 1265.9 56.0999 1357.3C110.8 1449.5 167.2 1544.8 167.2 1665.3H161.2C161.2 1546.4 105.2 1451.8 50.9999 1360.4C-3.6001 1268.2 -60.1001 1172.9 -60.1001 1052.5Z" fill="white"/>
<path d="M-19.9001 1052.5C-19.9001 932 36.5999 836.7 91.1999 744.6C145.4 653.1 201.5 558.5 201.5 439.7C201.5 320.9 145.4 226.3 91.1999 134.8C62.1999 85.8 32.0999 35.1 10.8999 -18.8L16.4999 -21C37.4999 32.5 67.4999 83 96.3999 131.8C151 223.9 207.5 319.2 207.5 439.7C207.5 560.2 151 655.5 96.3999 747.6C42.1999 839.1 -13.9001 933.6 -13.9001 1052.5C-13.9001 1171.3 42.1999 1265.9 96.3999 1357.3C151 1449.5 207.5 1544.8 207.5 1665.3H201.5C201.5 1546.4 145.4 1451.8 91.1999 1360.4C36.5999 1268.2 -19.9001 1172.9 -19.9001 1052.5Z" fill="white"/>
<path d="M20.3999 1052.5C20.3999 932 76.8999 836.7 131.5 744.6C185.7 653.1 241.7 558.5 241.7 439.7C241.7 320.9 185.7 226.3 131.5 134.8C102.4 85.8 72.3999 35.1 51.1999 -18.8L56.7999 -21C77.7999 32.5 107.7 83 136.6 131.8C191.3 223.9 247.7 319.2 247.7 439.7C247.7 560.2 191.3 655.5 136.6 747.6C82.3999 839.1 26.3999 933.6 26.3999 1052.5C26.3999 1171.3 82.3999 1265.9 136.6 1357.3C191.3 1449.5 247.7 1544.8 247.7 1665.3H241.7C241.7 1546.4 185.7 1451.8 131.5 1360.4C76.8999 1268.2 20.3999 1172.9 20.3999 1052.5Z" fill="white"/>
<path d="M60.5999 1052.5C60.5999 932 117.1 836.7 171.7 744.6C225.9 653.1 282 558.5 282 439.7C282 320.9 225.9 226.3 171.7 134.8C142.7 85.8 112.6 35.1 91.3999 -18.8L96.9999 -21C118 32.5 148 83 176.9 131.8C231.5 223.9 288 319.2 288 439.7C288 560.2 231.5 655.5 176.9 747.6C122.7 839.1 66.5999 933.6 66.5999 1052.5C66.5999 1171.3 122.7 1265.9 176.9 1357.3C231.5 1449.5 288 1544.8 288 1665.3H282C282 1546.4 225.9 1451.8 171.7 1360.4C117.1 1268.2 60.5999 1172.9 60.5999 1052.5Z" fill="white"/>
<path d="M100.9 1052.5C100.9 932 157.3 836.7 212 744.6C266.2 653.1 322.2 558.5 322.2 439.7C322.2 320.9 266.2 226.3 212 134.8C182.9 85.8 152.9 35.1 131.7 -18.8L137.3 -21C158.3 32.5 188.2 83 217.1 131.8C271.7 223.9 328.2 319.2 328.2 439.7C328.2 560.2 271.7 655.5 217.1 747.6C162.9 839.1 106.9 933.6 106.9 1052.5C106.9 1171.3 162.9 1265.9 217.1 1357.3C271.7 1449.5 328.2 1544.8 328.2 1665.3H322.2C322.2 1546.4 266.2 1451.8 212 1360.4C157.3 1268.2 100.9 1172.9 100.9 1052.5Z" fill="white"/>
<path d="M141.1 1052.5C141.1 932 197.6 836.7 252.2 744.6C306.4 653.1 362.5 558.5 362.5 439.7C362.5 320.9 306.4 226.3 252.2 134.8C223.2 85.8 193.1 35.1 171.9 -18.8L177.5 -21C198.5 32.5 228.4 83 257.4 131.8C312 223.9 368.5 319.2 368.5 439.7C368.5 560.2 312 655.5 257.4 747.6C203.2 839.1 147.1 933.6 147.1 1052.5C147.1 1171.3 203.2 1265.9 257.4 1357.3C312 1449.5 368.5 1544.8 368.5 1665.3H362.5C362.5 1546.4 306.4 1451.8 252.2 1360.4C197.6 1268.2 141.1 1172.9 141.1 1052.5Z" fill="white"/>
<path d="M181.4 1052.5C181.4 932 237.8 836.7 292.5 744.6C346.7 653.1 402.7 558.5 402.7 439.7C402.7 320.9 346.7 226.3 292.5 134.8C263.4 85.8 233.4 35.1 212.2 -18.8L217.8 -21C238.8 32.5 268.7 83 297.6 131.8C352.2 223.9 408.7 319.2 408.7 439.7C408.7 560.2 352.2 655.5 297.6 747.6C243.4 839.1 187.4 933.6 187.4 1052.5C187.4 1171.3 243.4 1265.9 297.6 1357.3C352.2 1449.5 408.7 1544.8 408.7 1665.3H402.7C402.7 1546.4 346.7 1451.8 292.5 1360.4C237.8 1268.2 181.4 1172.9 181.4 1052.5Z" fill="white"/>
<path d="M221.6 1052.5C221.6 932 278.1 836.7 332.7 744.6C386.9 653.1 443 558.5 443 439.7C443 320.9 386.9 226.3 332.7 134.8C303.7 85.8 273.6 35.1 252.4 -18.8L258 -21C279 32.5 308.9 83 337.9 131.8C392.5 223.9 449 319.2 449 439.7C449 560.2 392.5 655.5 337.9 747.6C283.7 839.1 227.6 933.6 227.6 1052.5C227.6 1171.3 283.7 1265.9 337.9 1357.3C392.5 1449.5 449 1544.8 449 1665.3H443C443 1546.4 386.9 1451.8 332.7 1360.4C278.1 1268.2 221.6 1172.9 221.6 1052.5Z" fill="white"/>
<path d="M261.9 1052.5C261.9 932 318.3 836.7 373 744.6C427.2 653.1 483.2 558.5 483.2 439.7C483.2 320.9 427.2 226.3 373 134.8C343.9 85.8 313.9 35.1 292.7 -18.8L298.3 -21C319.3 32.5 349.2 83 378.1 131.8C432.7 223.9 489.2 319.2 489.2 439.7C489.2 560.2 432.7 655.5 378.1 747.6C323.9 839.1 267.9 933.6 267.9 1052.5C267.9 1171.3 323.9 1265.9 378.1 1357.3C432.7 1449.5 489.2 1544.8 489.2 1665.3H483.2C483.2 1546.4 427.2 1451.8 373 1360.4C318.3 1268.2 261.9 1172.9 261.9 1052.5Z" fill="white"/>
<path d="M302.1 1052.5C302.1 932 358.6 836.7 413.2 744.6C467.4 653.1 523.5 558.5 523.5 439.7C523.5 320.9 467.4 226.3 413.2 134.8C384.2 85.8 354.1 35.1 332.9 -18.8L338.5 -21C359.5 32.5 389.4 83 418.4 131.8C473 223.9 529.5 319.2 529.5 439.7C529.5 560.2 473 655.5 418.4 747.6C364.2 839.1 308.1 933.6 308.1 1052.5C308.1 1171.3 364.2 1265.9 418.4 1357.3C473 1449.5 529.5 1544.8 529.5 1665.3H523.5C523.5 1546.4 467.4 1451.8 413.2 1360.4C358.6 1268.2 302.1 1172.9 302.1 1052.5Z" fill="white"/>
<path d="M342.3 1052.5C342.3 932 398.8 836.7 453.4 744.6C507.7 653.1 563.7 558.5 563.7 439.7C563.7 320.9 507.7 226.3 453.5 134.8C424.4 85.8 394.4 35.1 373.2 -18.8L378.7 -21C399.8 32.5 429.7 83 458.6 131.8C513.2 223.9 569.7 319.2 569.7 439.7C569.7 560.2 513.2 655.5 458.6 747.6C404.4 839.1 348.3 933.6 348.3 1052.5C348.3 1171.3 404.4 1265.9 458.6 1357.3C513.2 1449.5 569.7 1544.8 569.7 1665.3H563.7C563.7 1546.4 507.7 1451.8 453.4 1360.4C398.8 1268.2 342.3 1172.9 342.3 1052.5Z" fill="white"/>
<path d="M382.6 1052.5C382.6 932 439.1 836.7 493.7 744.6C547.9 653.1 604 558.5 604 439.7C604 320.9 547.9 226.3 493.7 134.8C464.7 85.8 434.6 35.1 413.4 -18.8L419 -21C440 32.5 469.9 83 498.9 131.8C553.5 223.9 610 319.2 610 439.7C610 560.2 553.5 655.5 498.9 747.6C444.7 839.1 388.6 933.6 388.6 1052.5C388.6 1171.3 444.7 1265.9 498.9 1357.3C553.5 1449.5 610 1544.8 610 1665.3H604C604 1546.4 547.9 1451.8 493.7 1360.4C439.1 1268.2 382.6 1172.9 382.6 1052.5Z" fill="white"/>
<path d="M422.8 1052.5C422.8 932 479.3 836.7 533.9 744.6C588.2 653.1 644.2 558.5 644.2 439.7C644.2 320.9 588.2 226.3 533.9 134.8C504.9 85.8 474.9 35.1 453.7 -18.8L459.2 -21C480.3 32.5 510.2 83 539.1 131.8C593.7 223.9 650.2 319.2 650.2 439.7C650.2 560.2 593.7 655.5 539.1 747.6C484.9 839.1 428.8 933.6 428.8 1052.5C428.8 1171.3 484.9 1265.9 539.1 1357.3C593.7 1449.5 650.2 1544.8 650.2 1665.3H644.2C644.2 1546.4 588.2 1451.8 533.9 1360.4C479.3 1268.2 422.8 1172.9 422.8 1052.5Z" fill="white"/>
<path d="M463.1 1052.5C463.1 932 519.6 836.7 574.2 744.6C628.4 653.1 684.5 558.5 684.5 439.7C684.5 320.9 628.4 226.3 574.2 134.8C545.1 85.8 515.1 35.1 493.9 -18.8L499.5 -21C520.5 32.5 550.4 83 579.4 131.8C634 223.9 690.5 319.2 690.5 439.7C690.5 560.2 634 655.5 579.4 747.6C525.1 839.1 469.1 933.6 469.1 1052.5C469.1 1171.3 525.1 1265.9 579.4 1357.3C634 1449.5 690.5 1544.8 690.5 1665.3H684.5C684.5 1546.4 628.4 1451.8 574.2 1360.4C519.6 1268.2 463.1 1172.9 463.1 1052.5Z" fill="white"/>
<path d="M503.3 1052.5C503.3 932 559.8 836.7 614.4 744.6C668.6 653.1 724.7 558.5 724.7 439.7C724.7 320.9 668.6 226.3 614.4 134.8C585.4 85.8 555.4 35.1 534.1 -18.8L539.7 -21C560.8 32.5 590.7 83 619.6 131.8C674.2 223.9 730.7 319.2 730.7 439.7C730.7 560.2 674.2 655.5 619.6 747.6C565.4 839.1 509.3 933.6 509.3 1052.5C509.3 1171.3 565.4 1265.9 619.6 1357.3C674.2 1449.5 730.7 1544.8 730.7 1665.3H724.7C724.7 1546.4 668.6 1451.8 614.4 1360.4C559.8 1268.2 503.3 1172.9 503.3 1052.5Z" fill="white"/>
<path d="M543.6 1052.5C543.6 932 600.1 836.7 654.7 744.6C708.9 653.1 764.9 558.5 764.9 439.7C764.9 320.9 708.9 226.3 654.7 134.8C625.6 85.8 595.6 35.1 574.4 -18.8L580 -21C601 32.5 630.9 83 659.8 131.8C714.5 223.9 770.9 319.2 770.9 439.7C770.9 560.2 714.5 655.5 659.8 747.6C605.6 839.1 549.6 933.6 549.6 1052.5C549.6 1171.3 605.6 1265.9 659.8 1357.3C714.5 1449.5 770.9 1544.8 770.9 1665.3H764.9C764.9 1546.4 708.9 1451.8 654.7 1360.4C600.1 1268.2 543.6 1172.9 543.6 1052.5Z" fill="white"/>
<path d="M583.8 1052.5C583.8 932 640.3 836.7 694.9 744.6C749.1 653.1 805.2 558.5 805.2 439.7C805.2 320.9 749.1 226.3 694.9 134.8C665.9 85.8 635.8 35.1 614.6 -18.8L620.2 -21C641.3 32.5 671.2 83 700.1 131.8C754.7 223.9 811.2 319.2 811.2 439.7C811.2 560.2 754.7 655.5 700.1 747.6C645.9 839.1 589.8 933.6 589.8 1052.5C589.8 1171.3 645.9 1265.9 700.1 1357.3C754.7 1449.5 811.2 1544.8 811.2 1665.3H805.2C805.2 1546.4 749.1 1451.8 694.9 1360.4C640.3 1268.2 583.8 1172.9 583.8 1052.5Z" fill="white"/>
<path d="M624.1 1052.5C624.1 932 680.6 836.7 735.2 744.6C789.4 653.1 845.4 558.5 845.4 439.7C845.4 320.9 789.4 226.3 735.2 134.8C706.1 85.8 676.1 35.1 654.9 -18.8L660.5 -21C681.5 32.5 711.4 83 740.3 131.8C795 223.9 851.4 319.2 851.4 439.7C851.4 560.2 795 655.5 740.3 747.6C686.1 839.1 630.1 933.6 630.1 1052.5C630.1 1171.3 686.1 1265.9 740.3 1357.3C795 1449.5 851.4 1544.8 851.4 1665.3H845.4C845.4 1546.4 789.4 1451.8 735.2 1360.4C680.6 1268.2 624.1 1172.9 624.1 1052.5Z" fill="white"/>
<path d="M664.3 1052.5C664.3 932 720.8 836.7 775.4 744.6C829.6 653.1 885.7 558.5 885.7 439.7C885.7 320.9 829.6 226.3 775.4 134.8C746.4 85.8 716.3 35.1 695.1 -18.8L700.7 -21C721.7 32.5 751.7 83 780.6 131.8C835.2 223.9 891.7 319.2 891.7 439.7C891.7 560.2 835.2 655.5 780.6 747.6C726.4 839.1 670.3 933.6 670.3 1052.5C670.3 1171.3 726.4 1265.9 780.6 1357.3C835.2 1449.5 891.7 1544.8 891.7 1665.3H885.7C885.7 1546.4 829.6 1451.8 775.4 1360.4C720.8 1268.2 664.3 1172.9 664.3 1052.5Z" fill="white"/>
<path d="M704.6 1052.5C704.6 932 761.1 836.7 815.7 744.6C869.9 653.1 925.9 558.5 925.9 439.7C925.9 320.9 869.9 226.3 815.7 134.8C786.6 85.8 756.6 35.1 735.4 -18.8L741 -21C762 32.5 791.9 83 820.8 131.8C875.5 223.9 931.9 319.2 931.9 439.7C931.9 560.2 875.5 655.5 820.8 747.6C766.6 839.1 710.6 933.6 710.6 1052.5C710.6 1171.3 766.6 1265.9 820.8 1357.3C875.5 1449.5 931.9 1544.8 931.9 1665.3H925.9C925.9 1546.4 869.9 1451.8 815.7 1360.4C761.1 1268.2 704.6 1172.9 704.6 1052.5Z" fill="white"/>
<path d="M744.8 1052.5C744.8 932 801.3 836.7 855.9 744.6C910.1 653.1 966.2 558.5 966.2 439.7C966.2 320.9 910.1 226.3 855.9 134.8C826.9 85.8 796.8 35.1 775.6 -18.8L781.2 -21C802.2 32.5 832.2 83 861.1 131.8C915.7 223.9 972.2 319.2 972.2 439.7C972.2 560.2 915.7 655.5 861.1 747.6C806.9 839.1 750.8 933.6 750.8 1052.5C750.8 1171.3 806.9 1265.9 861.1 1357.3C915.7 1449.5 972.2 1544.8 972.2 1665.3H966.2C966.2 1546.4 910.1 1451.8 855.9 1360.4C801.3 1268.2 744.8 1172.9 744.8 1052.5Z" fill="white"/>
<path d="M785.1 1052.5C785.1 932 841.5 836.7 896.2 744.6C950.4 653.1 1006.4 558.5 1006.4 439.7C1006.4 320.9 950.4 226.3 896.2 134.8C867.1 85.8 837.1 35.1 815.9 -18.8L821.5 -21C842.5 32.5 872.4 83 901.3 131.8C955.9 223.9 1012.4 319.2 1012.4 439.7C1012.4 560.2 955.9 655.5 901.3 747.6C847.1 839.1 791.1 933.6 791.1 1052.5C791.1 1171.3 847.1 1265.9 901.3 1357.3C955.9 1449.5 1012.4 1544.8 1012.4 1665.3H1006.4C1006.4 1546.4 950.4 1451.8 896.2 1360.4C841.5 1268.2 785.1 1172.9 785.1 1052.5Z" fill="white"/>
<path d="M825.3 1052.5C825.3 932 881.8 836.7 936.4 744.6C990.6 653.1 1046.7 558.5 1046.7 439.7C1046.7 320.9 990.6 226.3 936.4 134.8C907.4 85.8 877.3 35.1 856.1 -18.8L861.7 -21C882.7 32.5 912.7 83 941.6 131.8C996.2 223.9 1052.7 319.2 1052.7 439.7C1052.7 560.2 996.2 655.5 941.6 747.6C887.4 839.1 831.3 933.6 831.3 1052.5C831.3 1171.3 887.4 1265.9 941.6 1357.3C996.2 1449.5 1052.7 1544.8 1052.7 1665.3H1046.7C1046.7 1546.4 990.6 1451.8 936.4 1360.4C881.8 1268.2 825.3 1172.9 825.3 1052.5Z" fill="white"/>
<path d="M865.6 1052.5C865.6 932 922 836.7 976.7 744.6C1030.9 653.1 1086.9 558.5 1086.9 439.7C1086.9 320.9 1030.9 226.3 976.7 134.8C947.6 85.8 917.6 35.1 896.4 -18.8L902 -21C923 32.5 952.9 83 981.8 131.8C1036.4 223.9 1092.9 319.2 1092.9 439.7C1092.9 560.2 1036.4 655.5 981.8 747.6C927.6 839.1 871.6 933.6 871.6 1052.5C871.6 1171.3 927.6 1265.9 981.8 1357.3C1036.4 1449.5 1092.9 1544.8 1092.9 1665.3H1086.9C1086.9 1546.4 1030.9 1451.8 976.7 1360.4C922 1268.2 865.6 1172.9 865.6 1052.5Z" fill="white"/>
<path d="M905.8 1052.5C905.8 932 962.3 836.7 1016.9 744.6C1071.1 653.1 1127.2 558.5 1127.2 439.7C1127.2 320.9 1071.1 226.3 1016.9 134.8C987.9 85.8 957.8 35.1 936.6 -18.8L942.2 -21C963.2 32.5 993.1 83 1022.1 131.8C1076.7 223.9 1133.2 319.2 1133.2 439.7C1133.2 560.2 1076.7 655.5 1022.1 747.6C967.9 839.1 911.8 933.6 911.8 1052.5C911.8 1171.3 967.9 1265.9 1022.1 1357.3C1076.7 1449.5 1133.2 1544.8 1133.2 1665.3H1127.2C1127.2 1546.4 1071.1 1451.8 1016.9 1360.4C962.3 1268.2 905.8 1172.9 905.8 1052.5Z" fill="white"/>
<path d="M946.1 1052.5C946.1 932 1002.5 836.7 1057.2 744.6C1111.4 653.1 1167.4 558.5 1167.4 439.7C1167.4 320.9 1111.4 226.3 1057.2 134.8C1028.1 85.8 998.1 35.1 976.9 -18.8L982.5 -21C1003.5 32.5 1033.4 83 1062.3 131.8C1116.9 223.9 1173.4 319.2 1173.4 439.7C1173.4 560.2 1116.9 655.5 1062.3 747.6C1008.1 839.1 952.1 933.6 952.1 1052.5C952.1 1171.3 1008.1 1265.9 1062.3 1357.3C1116.9 1449.5 1173.4 1544.8 1173.4 1665.3H1167.4C1167.4 1546.4 1111.4 1451.8 1057.2 1360.4C1002.5 1268.2 946.1 1172.9 946.1 1052.5Z" fill="white"/>
<path d="M986.3 1052.5C986.3 932 1042.8 836.7 1097.4 744.6C1151.6 653.1 1207.7 558.5 1207.7 439.7C1207.7 320.9 1151.6 226.3 1097.4 134.8C1068.4 85.8 1038.3 35.1 1017.1 -18.8L1022.7 -21C1043.7 32.5 1073.6 83 1102.6 131.8C1157.2 223.9 1213.7 319.2 1213.7 439.7C1213.7 560.2 1157.2 655.5 1102.6 747.6C1048.4 839.1 992.3 933.6 992.3 1052.5C992.3 1171.3 1048.4 1265.9 1102.6 1357.3C1157.2 1449.5 1213.7 1544.8 1213.7 1665.3H1207.7C1207.7 1546.4 1151.6 1451.8 1097.4 1360.4C1042.8 1268.2 986.3 1172.9 986.3 1052.5Z" fill="white"/>
<path d="M1026.6 1052.5C1026.6 932 1083 836.7 1137.7 744.5C1166.8 695.4 1196.9 644.6 1217.9 590.7L1223.5 592.9C1202.3 647.3 1172.1 698.3 1142.8 747.6C1088.6 839.1 1032.6 933.6 1032.6 1052.5C1032.6 1171.3 1088.6 1265.9 1142.8 1357.3C1172.1 1406.7 1202.3 1457.7 1223.5 1512L1217.9 1514.2C1196.9 1460.3 1166.8 1409.5 1137.7 1360.4C1083 1268.2 1026.6 1172.9 1026.6 1052.5Z" fill="white"/>
<path d="M1057.4 -18.8L1062.9 -21C1084 32.5 1113.9 83 1142.8 131.8C1172.1 181.1 1202.3 232.1 1223.5 286.5L1217.9 288.7C1196.9 234.8 1166.8 184 1137.7 134.8C1108.6 85.8 1078.6 35.1 1057.4 -18.8Z" fill="white"/>
<path d="M1066.8 1052.5C1066.8 932 1123.3 836.7 1177.9 744.5C1191.4 721.9 1205.3 698.4 1218.1 674.9L1223.4 677.8C1210.5 701.4 1196.5 724.9 1183.1 747.6C1128.9 839.1 1072.8 933.6 1072.8 1052.5C1072.8 1171.3 1128.9 1265.9 1183.1 1357.3C1196.5 1380.1 1210.5 1403.6 1223.4 1427.1L1218.1 1430C1205.3 1406.6 1191.3 1383.1 1177.9 1360.4C1123.3 1268.2 1066.8 1172.9 1066.8 1052.5Z" fill="white"/>
<path d="M1097.6 -18.8L1103.2 -21C1124.2 32.5 1154.1 83 1183.1 131.8C1196.5 154.5 1210.5 178 1223.4 201.6L1218.1 204.5C1205.3 181 1191.3 157.5 1177.9 134.8C1148.8 85.8 1118.8 35.1 1097.6 -18.8Z" fill="white"/>
<path d="M1107 1052.5C1107 932 1163.5 836.7 1218.1 744.6L1223.3 747.6C1169.1 839.1 1113 933.6 1113 1052.5C1113 1171.3 1169.1 1265.9 1223.3 1357.3L1218.1 1360.4C1163.5 1268.2 1107 1172.9 1107 1052.5Z" fill="white"/>
<path d="M1137.9 -18.8L1143.4 -21C1164.5 32.5 1194.3 82.9 1223.3 131.7L1218.1 134.8C1189.1 85.8 1159 35.1 1137.9 -18.8Z" fill="white"/>
<path d="M1147.3 1052.5C1147.3 956.7 1183.1 878.4 1218.1 814.4L1223.4 817.2C1188.7 880.6 1153.3 958.1 1153.3 1052.5C1153.3 1146.9 1188.7 1224.4 1223.4 1287.7L1218.1 1290.6C1183.1 1226.6 1147.3 1148.2 1147.3 1052.5Z" fill="white"/>
</g>
</g>
<defs>
<clipPath id="clip0_1_103">
<rect width="1153" height="1535" fill="white"/>
</clipPath>
</defs>
</svg>
