<?xml version="1.0" standalone="no"?>
<!DOCTYPE svg PUBLIC "-//W3C//DTD SVG 20010904//EN"
 "http://www.w3.org/TR/2001/REC-SVG-20010904/DTD/svg10.dtd">
<svg version="1.0" xmlns="http://www.w3.org/2000/svg"
 width="512.000000pt" height="512.000000pt" viewBox="0 0 512.000000 512.000000"
 preserveAspectRatio="xMidYMid meet">

<g transform="translate(0.000000,512.000000) scale(0.100000,-0.100000)"
fill="#000000" stroke="none">
<path d="M1932 4088 c-9 -9 -12 -99 -12 -345 0 -318 1 -333 19 -343 13 -6 225
-10 619 -10 567 0 600 1 615 18 15 16 17 55 17 336 0 200 -4 324 -10 337 -10
18 -28 19 -623 19 -464 0 -616 -3 -625 -12z m1091 -157 c33 -13 43 -46 23 -76
l-16 -25 -475 0 c-424 0 -475 2 -490 16 -23 23 -15 66 15 81 31 16 904 19 943
4z m21 -287 c21 -20 20 -43 -1 -66 -15 -17 -44 -18 -489 -18 -512 0 -504 -1
-504 54 0 46 -3 46 501 46 421 0 479 -2 493 -16z"/>
<path d="M2460 3075 l0 -215 -597 -2 c-584 -3 -599 -3 -638 -24 -25 -13 -51
-39 -70 -69 l-30 -48 -3 -209 -3 -208 -248 0 c-241 0 -249 -1 -282 -23 -18
-12 -44 -38 -56 -56 -22 -32 -23 -43 -23 -212 l0 -179 90 0 90 0 0 145 0 145
525 0 525 0 0 -145 0 -145 90 0 90 0 0 168 c0 154 -2 171 -22 212 -44 85 -44
85 -339 88 l-259 3 2 187 3 187 1255 0 1255 0 3 -187 2 -187 -259 -3 c-295 -3
-295 -3 -338 -88 -21 -41 -23 -58 -23 -212 l0 -168 90 0 90 0 0 145 0 145 525
0 525 0 0 -145 0 -145 90 0 90 0 0 179 c0 169 -1 180 -23 212 -12 18 -38 44
-56 56 -33 22 -41 23 -282 23 l-248 0 -3 208 c-3 205 -3 207 -30 254 -21 34
-41 53 -80 72 l-52 26 -598 0 -598 0 0 215 0 215 -90 0 -90 0 0 -215z"/>
<path d="M370 1370 l0 -350 230 0 230 0 0 350 0 350 -230 0 -230 0 0 -350z"/>
<path d="M1600 1370 l0 -350 230 0 230 0 0 350 0 350 -230 0 -230 0 0 -350z"/>
<path d="M3060 1370 l0 -350 230 0 230 0 0 350 0 350 -230 0 -230 0 0 -350z"/>
<path d="M4290 1370 l0 -350 230 0 230 0 0 350 0 350 -230 0 -230 0 0 -350z"/>
</g>
</svg>
