<svg width="562" height="706" viewBox="0 0 562 706" fill="none" xmlns="http://www.w3.org/2000/svg">
<path d="M77.9199 656.77H99.6299V585.22L77.9199 600.14V656.77ZM49.9199 599.07L16.6699 549.07H0V656.79H21.71V595.55L49.8799 637.87L99.6099 562.92V549.05H83L49.9199 599.07ZM174 581.52L189.24 618.46H155.52L184 549.05H160.76L116.57 656.77H139.66L147.82 637.69H197.09L205.09 656.77H228.19L191.39 566.6L174 581.52ZM302.85 567.83V549.05H274.37L283.76 567.83H302.85ZM217.26 567.83H249V656.77H271.17V549.05H217.29L217.26 567.83ZM383.21 624.77L365.21 636.46L381.69 656.77H409.09L383.21 624.77ZM341.49 624.92C348.584 624.92 354.357 624.947 358.81 625C363.28 625.05 367.02 625 370.05 624.84C372.642 624.75 375.221 624.415 377.75 623.84C380.106 623.24 382.4 622.416 384.6 621.38C391.028 618.439 396.496 613.747 400.38 607.84C404.446 601.741 406.566 594.551 406.46 587.22C406.486 582.117 405.465 577.063 403.46 572.37C401.546 567.83 398.776 563.702 395.3 560.21C391.846 556.763 387.775 553.996 383.3 552.05C378.663 550.037 373.656 549.015 368.6 549.05H319.8V656.77H341.5L341.49 624.92ZM341.49 567.98H368.59C370.804 567.971 372.99 568.471 374.98 569.44C376.958 570.405 378.733 571.739 380.21 573.37C381.707 575.021 382.904 576.919 383.75 578.98C384.614 581.052 385.06 583.275 385.06 585.52C385.06 590.96 383.47 595.293 380.29 598.52C378.78 600.092 376.961 601.335 374.948 602.17C372.934 603.004 370.769 603.413 368.59 603.37H341.49V567.98ZM423.7 656.77H446.18V549.05H423.7V656.77ZM460.8 656.77H487L509.47 624.46L490.08 614.61L460.8 656.77ZM524.23 602.77L561.49 549.06H535.16L511.3 588.3L487.3 549.06H461.1L498.2 602.77L511.29 621.7L535.46 656.78H561.79L524.23 602.77ZM16.3799 532.7H52.5498C53.7427 532.707 54.9253 532.476 56.0283 532.022C57.1313 531.568 58.1325 530.899 58.9746 530.054C59.8167 529.209 60.4824 528.205 60.9331 527.101C61.3838 525.996 61.6107 524.813 61.6001 523.62V511.43C61.6107 510.237 61.3838 509.054 60.9331 507.95C60.4824 506.845 59.8167 505.842 58.9746 504.997C58.1325 504.152 57.1313 503.483 56.0283 503.028C54.9253 502.574 53.7427 502.344 52.5498 502.35H16.3799C15.997 502.356 15.6167 502.286 15.2612 502.144C14.9058 502.001 14.5826 501.789 14.3101 501.52C14.0296 501.258 13.8071 500.941 13.6572 500.588C13.5074 500.234 13.4334 499.854 13.4399 499.47V487.29C13.4347 486.902 13.509 486.518 13.6587 486.16C13.8084 485.802 14.0303 485.479 14.3101 485.21C14.5764 484.93 14.8977 484.708 15.2539 484.559C15.6102 484.409 15.9935 484.335 16.3799 484.34H52.5498C52.9376 484.335 53.3224 484.41 53.6802 484.559C54.038 484.709 54.3613 484.93 54.6299 485.21C54.9065 485.481 55.1256 485.805 55.2734 486.162C55.4213 486.52 55.495 486.903 55.4902 487.29V489.41H61.6001V487.29C61.6107 486.097 61.3838 484.914 60.9331 483.81C60.4824 482.705 59.8167 481.701 58.9746 480.857C58.1325 480.012 57.1313 479.343 56.0283 478.888C54.9253 478.434 53.7427 478.203 52.5498 478.21H16.3799C15.1912 478.21 14.0147 478.446 12.9175 478.903C11.8203 479.36 10.8246 480.03 9.98779 480.875C9.15101 481.719 8.48955 482.72 8.04199 483.821C7.59443 484.923 7.36932 486.102 7.37988 487.29V499.47C7.36799 500.66 7.5921 501.84 8.03906 502.942C8.48603 504.044 9.14697 505.047 9.98389 505.892C10.8208 506.738 11.8172 507.409 12.915 507.867C14.0129 508.325 15.1904 508.56 16.3799 508.56H52.5498C52.9344 508.553 53.3166 508.622 53.6738 508.765C54.0311 508.907 54.3562 509.12 54.6299 509.39C54.9013 509.648 55.1178 509.958 55.2656 510.302C55.4135 510.646 55.49 511.016 55.4902 511.39V523.58C55.495 523.967 55.4213 524.351 55.2734 524.709C55.1256 525.066 54.9065 525.39 54.6299 525.66C54.3613 525.94 54.038 526.162 53.6802 526.311C53.3224 526.461 52.9376 526.536 52.5498 526.53H16.3799C15.9935 526.536 15.6102 526.461 15.2539 526.312C14.8977 526.162 14.5764 525.94 14.3101 525.66C14.0303 525.392 13.8084 525.068 13.6587 524.711C13.509 524.353 13.4347 523.968 13.4399 523.58V521.46H7.33984V523.58C7.32928 524.769 7.55439 525.948 8.00195 527.049C8.44951 528.15 9.11097 529.152 9.94775 529.996C10.7845 530.84 11.7803 531.51 12.8774 531.967C13.9746 532.425 15.1512 532.66 16.3398 532.66L16.3799 532.7ZM136 485.16L160.8 514.75L185.59 485.16V532.69H191.7V478.2H183.33L160.8 505.14L138.26 478.2H129.9V532.69H136V485.16ZM266.38 512.79H308.43V532.69H314.54V487.28C314.551 486.088 314.324 484.904 313.874 483.8C313.423 482.695 312.757 481.692 311.915 480.847C311.073 480.002 310.071 479.333 308.968 478.879C307.865 478.424 306.683 478.194 305.49 478.2H269.32C268.131 478.2 266.955 478.435 265.857 478.893C264.76 479.35 263.765 480.02 262.928 480.864C262.091 481.709 261.429 482.71 260.982 483.812C260.534 484.913 260.309 486.092 260.32 487.28V532.69H266.42L266.38 512.79ZM266.38 487.28C266.38 486.495 266.688 485.741 267.237 485.18C267.787 484.619 268.535 484.296 269.32 484.28H305.49C305.878 484.275 306.263 484.35 306.621 484.499C306.978 484.649 307.301 484.87 307.57 485.15C307.846 485.421 308.066 485.745 308.213 486.102C308.361 486.46 308.435 486.843 308.43 487.23V506.6H266.38V487.28ZM389.45 512.1C390.424 512.257 391.405 512.36 392.39 512.41H412.28L429.28 532.69H437.34L420.34 512.41H428.63C429.823 512.432 431.008 512.207 432.11 511.752C433.213 511.296 434.21 510.618 435.04 509.76C435.893 508.922 436.565 507.918 437.018 506.811C437.47 505.704 437.692 504.516 437.67 503.32V487.32C437.68 486.132 437.455 484.953 437.008 483.852C436.56 482.751 435.899 481.749 435.062 480.904C434.226 480.06 433.23 479.39 432.133 478.933C431.036 478.475 429.859 478.24 428.67 478.24H383.45V532.66H389.56L389.45 512.1ZM389.45 487.35C389.447 486.964 389.521 486.58 389.668 486.223C389.816 485.865 390.034 485.541 390.31 485.27C390.579 484.99 390.902 484.769 391.26 484.619C391.618 484.47 392.002 484.395 392.39 484.4H428.56C428.936 484.397 429.308 484.474 429.652 484.624C429.997 484.774 430.306 484.994 430.56 485.27C430.83 485.544 431.042 485.87 431.185 486.227C431.327 486.584 431.397 486.966 431.39 487.35V503.35C431.397 503.729 431.328 504.105 431.187 504.456C431.045 504.807 430.835 505.126 430.568 505.395C430.302 505.663 429.984 505.875 429.634 506.019C429.284 506.162 428.908 506.234 428.53 506.23H392.36C391.976 506.235 391.594 506.165 391.237 506.023C390.88 505.88 390.555 505.668 390.28 505.4C390.002 505.137 389.782 504.818 389.634 504.465C389.486 504.113 389.413 503.733 389.42 503.35L389.45 487.35ZM527.28 532.69H533.39V484.35H557.39V478.22H503.13V484.35H527.24L527.28 532.69ZM246.78 680.07H256.15V705.48H258.15V680.07H267.52V678.24H246.78V680.07ZM275.59 692.68H291V690.85H275.6V680.07H292.73V678.24H273.6V705.48H293V703.65H275.68L275.59 692.68ZM316.65 703.03C315.067 703.782 313.331 704.151 311.58 704.11C310.029 704.127 308.492 703.803 307.08 703.16C305.718 702.543 304.497 701.655 303.49 700.55C302.456 699.414 301.641 698.095 301.09 696.66C300.494 695.131 300.196 693.501 300.21 691.86V691.78C300.198 690.148 300.489 688.526 301.07 687C301.615 685.573 302.423 684.261 303.45 683.13C304.454 682.027 305.677 681.145 307.04 680.54C308.457 679.914 309.991 679.596 311.54 679.61C312.476 679.601 313.409 679.706 314.32 679.92C315.14 680.113 315.938 680.392 316.7 680.75C317.429 681.102 318.119 681.527 318.76 682.02C319.403 682.514 320.018 683.045 320.6 683.61L322.02 682.13C321.343 681.501 320.632 680.91 319.89 680.36C319.155 679.827 318.372 679.365 317.55 678.98C316.683 678.582 315.774 678.284 314.84 678.09C313.767 677.872 312.675 677.768 311.58 677.78C309.728 677.76 307.893 678.139 306.2 678.89C304.598 679.598 303.154 680.618 301.95 681.89C300.745 683.199 299.795 684.722 299.15 686.38C298.473 688.117 298.134 689.966 298.15 691.83V691.91C298.141 693.783 298.48 695.641 299.15 697.39C299.783 699.043 300.731 700.558 301.94 701.85C303.173 703.147 304.66 704.177 306.308 704.876C307.956 705.574 309.73 705.926 311.52 705.91C312.617 705.923 313.711 705.805 314.78 705.56C315.745 705.335 316.681 704.999 317.57 704.56C318.428 704.149 319.24 703.646 319.99 703.06C320.762 702.462 321.5 701.821 322.2 701.14L320.85 699.81C319.648 701.103 318.243 702.191 316.69 703.03H316.65ZM346.87 690.89H329.67V678.24H327.67V705.48H329.67V692.72H346.87V705.48H348.87V678.24H346.87V690.89ZM377.29 701.94L358.74 678.24H356.86V705.48H358.78V681.28L377.72 705.48H379.21V678.24H377.29V701.94ZM409.37 682C408.168 680.7 406.716 679.656 405.1 678.93C402.541 677.759 399.677 677.428 396.918 677.983C394.16 678.538 391.647 679.951 389.74 682.02C388.553 683.334 387.621 684.856 386.99 686.51C386.33 688.217 385.991 690.03 385.99 691.86V691.94C385.995 693.763 386.334 695.57 386.99 697.27C387.607 698.915 388.533 700.426 389.72 701.72C391.654 703.743 394.162 705.123 396.905 705.674C399.649 706.225 402.496 705.92 405.06 704.8C406.687 704.071 408.147 703.016 409.35 701.7C410.536 700.388 411.465 698.865 412.09 697.21C412.755 695.505 413.094 693.69 413.09 691.86C413.09 691.86 413.09 691.81 413.09 691.78C413.084 689.958 412.746 688.151 412.09 686.45C411.485 684.811 410.576 683.301 409.41 682H409.37ZM410.98 691.94C410.994 693.559 410.706 695.167 410.13 696.68C409.599 698.11 408.798 699.424 407.77 700.55C406.167 702.257 404.073 703.423 401.778 703.887C399.483 704.351 397.1 704.09 394.96 703.14C393.587 702.519 392.353 701.628 391.33 700.52C390.303 699.382 389.496 698.063 388.95 696.63C388.369 695.108 388.077 693.49 388.09 691.86V691.78C388.078 690.162 388.363 688.556 388.93 687.04C389.461 685.611 390.262 684.296 391.29 683.17C392.306 682.067 393.534 681.179 394.9 680.56C396.351 679.927 397.917 679.6 399.5 679.6C401.083 679.6 402.649 679.927 404.1 680.56C405.473 681.182 406.708 682.073 407.73 683.18C408.761 684.316 409.568 685.636 410.11 687.07C410.695 688.592 410.99 690.21 410.98 691.84V691.94ZM421.85 678.24H419.85V705.48H437.63V703.65H421.85V678.24ZM464.25 682C463.05 680.702 461.601 679.658 459.99 678.93C457.429 677.762 454.565 677.431 451.805 677.986C449.045 678.541 446.531 679.953 444.62 682.02C443.436 683.334 442.507 684.857 441.88 686.51C441.22 688.217 440.881 690.03 440.88 691.86V691.94C440.884 693.763 441.223 695.57 441.88 697.27C442.496 698.915 443.423 700.426 444.61 701.72C445.847 703.08 447.36 704.16 449.049 704.888C450.737 705.616 452.562 705.974 454.4 705.94C456.31 705.963 458.203 705.574 459.95 704.8C461.575 704.073 463.032 703.018 464.23 701.7C465.422 700.391 466.356 698.867 466.98 697.21C467.64 695.504 467.979 693.69 467.98 691.86C467.99 691.849 467.995 691.835 467.995 691.82C467.995 691.806 467.99 691.791 467.98 691.78C467.975 689.958 467.636 688.151 466.98 686.45C466.376 684.809 465.463 683.298 464.29 682H464.25ZM465.87 691.94C465.879 693.559 465.591 695.165 465.02 696.68C464.489 698.11 463.688 699.424 462.66 700.55C461.057 702.257 458.963 703.423 456.668 703.887C454.373 704.351 451.99 704.09 449.85 703.14C448.477 702.519 447.243 701.628 446.22 700.52C445.189 699.385 444.381 698.065 443.84 696.63C443.255 695.108 442.96 693.49 442.97 691.86V691.78C442.956 690.161 443.244 688.553 443.82 687.04C444.351 685.611 445.152 684.296 446.18 683.17C447.218 682.032 448.486 681.126 449.899 680.513C451.312 679.899 452.839 679.591 454.38 679.61C455.971 679.601 457.546 679.943 458.99 680.61C460.363 681.232 461.598 682.123 462.62 683.23C463.648 684.368 464.455 685.687 465 687.12C465.585 688.642 465.88 690.26 465.87 691.89V691.94ZM486.72 693.22H495.72V701.01C495.192 701.455 494.626 701.853 494.03 702.2C493.371 702.588 492.682 702.922 491.97 703.2C491.218 703.494 490.442 703.721 489.65 703.88C488.827 704.049 487.99 704.133 487.15 704.13C485.496 704.157 483.855 703.841 482.33 703.2C480.953 702.612 479.716 701.74 478.7 700.64C477.678 699.516 476.901 698.191 476.42 696.75C475.88 695.177 475.612 693.523 475.63 691.86V691.78C475.623 690.191 475.897 688.614 476.44 687.12C476.951 685.696 477.725 684.38 478.72 683.24C479.704 682.132 480.901 681.234 482.24 680.6C483.641 679.93 485.177 679.588 486.73 679.6C488.461 679.544 490.183 679.861 491.78 680.53C493.085 681.125 494.295 681.91 495.37 682.86L496.68 681.35C496.033 680.793 495.344 680.284 494.62 679.83C493.916 679.387 493.173 679.008 492.4 678.7C491.579 678.381 490.728 678.146 489.86 678C488.868 677.842 487.864 677.765 486.86 677.77C484.976 677.747 483.111 678.143 481.4 678.93C479.804 679.677 478.376 680.739 477.2 682.05C476.019 683.357 475.105 684.882 474.51 686.54C473.881 688.24 473.563 690.038 473.57 691.85V691.93C473.554 693.777 473.866 695.612 474.49 697.35C475.071 698.997 475.971 700.513 477.14 701.81C478.326 703.098 479.771 704.12 481.38 704.81C483.185 705.576 485.13 705.954 487.09 705.92C489.154 705.944 491.199 705.528 493.09 704.7C494.741 703.985 496.276 703.024 497.64 701.85V691.35H486.73L486.72 693.22ZM505.12 705.48H507.12V678.24H505.12V705.48ZM517.37 692.68H532.77V690.85H517.37V680.07H534.5V678.24H515.37V705.48H534.69V703.65H517.37V692.68ZM557.05 693.59C555.656 692.41 553.403 691.497 550.29 690.85C548.958 690.585 547.648 690.221 546.37 689.76C545.506 689.458 544.696 689.019 543.97 688.46C543.44 688.04 543.029 687.488 542.78 686.86C542.547 686.219 542.436 685.541 542.45 684.86V684.78C542.447 684.087 542.605 683.403 542.91 682.78C543.227 682.143 543.682 681.582 544.24 681.14C544.857 680.648 545.558 680.272 546.31 680.03C547.185 679.748 548.1 679.61 549.02 679.62C551.985 679.569 554.854 680.674 557.02 682.7L558.29 681.1C557.04 680.056 555.633 679.215 554.12 678.61C552.515 678.043 550.822 677.769 549.12 677.8C547.945 677.787 546.776 677.97 545.66 678.34C544.663 678.672 543.737 679.187 542.93 679.86C542.178 680.483 541.565 681.256 541.13 682.13C540.689 683.004 540.463 683.971 540.47 684.95V685.03C540.454 685.974 540.624 686.912 540.97 687.79C541.323 688.617 541.872 689.344 542.57 689.91C543.418 690.591 544.37 691.132 545.39 691.51C546.739 692.019 548.127 692.417 549.54 692.7C550.819 692.927 552.077 693.261 553.3 693.7C554.138 693.994 554.925 694.42 555.63 694.96C556.155 695.368 556.565 695.906 556.82 696.52C557.045 697.142 557.154 697.799 557.14 698.46V698.54C557.149 699.289 556.981 700.029 556.65 700.7C556.311 701.361 555.837 701.944 555.26 702.41C554.621 702.92 553.892 703.303 553.11 703.54C552.217 703.819 551.286 703.958 550.35 703.95C549.42 703.955 548.493 703.868 547.58 703.69C546.749 703.532 545.938 703.284 545.16 702.95C544.368 702.62 543.613 702.204 542.91 701.71C542.133 701.162 541.398 700.557 540.71 699.9L539.4 701.42C540.873 702.781 542.563 703.886 544.4 704.69C546.249 705.433 548.228 705.8 550.22 705.77C551.438 705.784 552.65 705.601 553.81 705.23C554.833 704.903 555.786 704.387 556.62 703.71C557.395 703.068 558.023 702.267 558.46 701.36C558.91 700.424 559.139 699.398 559.13 698.36V698.35C559.167 697.455 559.003 696.563 558.65 695.739C558.297 694.915 557.764 694.181 557.09 693.59H557.05Z" fill="white"/>
<mask id="mask0_4_2" style="mask-type:luminance" maskUnits="userSpaceOnUse" x="129" y="91" width="315" height="315">
<path d="M304.83 368.16L378.38 294.61V335.67L324.71 389.35C319.097 394.974 312.308 399.284 304.83 401.97V368.16ZM185.32 211.35L166 230.65C161.319 235.363 158.691 241.737 158.691 248.38C158.691 255.023 161.319 261.396 166 266.11L212.89 312.99V335.42H222.08V322.18L268.7 368.81C272.166 372.249 276.555 374.609 281.335 375.601C286.116 376.593 291.082 376.176 295.63 374.4V404.4C287.098 405.882 278.334 405.294 270.077 402.684C261.819 400.073 254.31 395.517 248.18 389.4L145.48 286.7C135.35 276.544 129.662 262.784 129.662 248.44C129.662 234.095 135.35 220.337 145.48 210.18L185.31 170.35L185.32 211.35ZM268.06 128.61L194.51 202.16V161.11L248.18 107.43C253.796 101.81 260.584 97.5001 268.06 94.81V128.61ZM350.81 174.61L304.18 127.98C300.716 124.539 296.325 122.18 291.544 121.189C286.763 120.198 281.796 120.619 277.25 122.4V92.3998C285.784 90.92 294.548 91.5099 302.807 94.1201C311.065 96.7302 318.577 101.284 324.71 107.4L350.81 133.5V174.61ZM427.41 286.67L387.57 326.5V285.45L406.88 266.15C411.564 261.436 414.193 255.061 414.193 248.415C414.193 241.769 411.564 235.394 406.88 230.68L360 183.77V142.71L427.4 210.12C437.531 220.275 443.221 234.033 443.223 248.378C443.225 262.722 437.538 276.482 427.41 286.64V286.67Z" fill="white"/>
</mask>
<g mask="url(#mask0_4_2)">
<path d="M448.49 89.52H124.391V407.23H448.49V89.52Z" fill="url(#paint0_linear_4_2)"/>
</g>
<mask id="mask1_4_2" style="mask-type:luminance" maskUnits="userSpaceOnUse" x="277" y="61" width="19" height="179">
<path d="M295.63 61.6899H277.25V239.46H295.63V61.6899Z" fill="white"/>
</mask>
<g mask="url(#mask1_4_2)">
<path d="M295.63 61.6901H277.25V239.46H295.63V61.6901Z" fill="url(#paint1_linear_4_2)"/>
</g>
<mask id="mask2_4_2" style="mask-type:luminance" maskUnits="userSpaceOnUse" x="248" y="210" width="77" height="77">
<path d="M321.579 255.91L293.999 283.52C292 285.509 289.294 286.625 286.474 286.625C283.654 286.625 280.949 285.509 278.949 283.52L251.339 255.91C249.344 253.912 248.225 251.203 248.225 248.38C248.225 245.556 249.344 242.849 251.339 240.85L278.949 213.24C280.949 211.251 283.654 210.135 286.474 210.135C289.294 210.135 292 211.251 293.999 213.24L321.609 240.85C323.603 242.849 324.724 245.556 324.724 248.38C324.724 251.203 323.603 253.912 321.609 255.91" fill="white"/>
</mask>
<g mask="url(#mask2_4_2)">
<path d="M325.729 209.1H247.159V287.67H325.729V209.1Z" fill="url(#paint2_linear_4_2)"/>
</g>
<mask id="mask3_4_2" style="mask-type:luminance" maskUnits="userSpaceOnUse" x="165" y="11" width="77" height="77">
<path d="M238.839 56.8799L211.229 84.4902C209.235 86.4688 206.539 87.5786 203.729 87.5786C200.92 87.5786 198.224 86.4688 196.229 84.4902L168.62 56.8799C166.626 54.8831 165.506 52.1768 165.506 49.355C165.506 46.5332 166.626 43.8269 168.62 41.8301L196.229 14.2202C198.224 12.2417 200.92 11.1313 203.729 11.1313C206.539 11.1313 209.235 12.2417 211.229 14.2202L238.839 41.8301C240.833 43.8269 241.953 46.5332 241.953 49.355C241.953 52.1768 240.833 54.8831 238.839 56.8799Z" fill="white"/>
</mask>
<g mask="url(#mask3_4_2)">
<path d="M242.99 10.0701H164.42V88.64H242.99V10.0701Z" fill="url(#paint3_linear_4_2)"/>
</g>
<mask id="mask4_4_2" style="mask-type:luminance" maskUnits="userSpaceOnUse" x="330" y="34" width="78" height="195">
<path d="M360 105.74V228.97H378.379V105.74L404.33 79.7402C406.303 77.743 407.41 75.0482 407.41 72.2402C407.41 69.4323 406.303 66.7375 404.33 64.7402L376.72 37.1299C374.721 35.1355 372.013 34.0156 369.189 34.0156C366.366 34.0156 363.658 35.1355 361.66 37.1299L334.049 64.7402C332.076 66.7375 330.969 69.4323 330.969 72.2402C330.969 75.0482 332.076 77.743 334.049 79.7402L360 105.74Z" fill="white"/>
</mask>
<g mask="url(#mask4_4_2)">
<path d="M408.469 32.98H329.899V228.97H408.469V32.98Z" fill="url(#paint4_linear_4_2)"/>
</g>
<mask id="mask5_4_2" style="mask-type:luminance" maskUnits="userSpaceOnUse" x="194" y="106" width="19" height="112">
<path d="M212.89 106.31H194.51V217.03H212.89V106.31Z" fill="white"/>
</mask>
<g mask="url(#mask5_4_2)">
<path d="M212.89 106.31H194.51V217.03H212.89V106.31Z" fill="url(#paint5_linear_4_2)"/>
</g>
<mask id="mask6_4_2" style="mask-type:luminance" maskUnits="userSpaceOnUse" x="277" y="0" width="19" height="40">
<path d="M295.63 0H277.25V39.1401H295.63V0Z" fill="white"/>
</mask>
<g mask="url(#mask6_4_2)">
<path d="M295.63 -0.00994873H277.25V39.1301H295.63V-0.00994873Z" fill="url(#paint6_linear_4_2)"/>
</g>
<mask id="mask7_4_2" style="mask-type:luminance" maskUnits="userSpaceOnUse" x="360" y="270" width="19" height="104">
<path d="M378.38 270.76H360V373.07H378.38V270.76Z" fill="white"/>
</mask>
<g mask="url(#mask7_4_2)">
<path d="M378.38 270.76H360V373.07H378.38V270.76Z" fill="url(#paint7_linear_4_2)"/>
</g>
<mask id="mask8_4_2" style="mask-type:luminance" maskUnits="userSpaceOnUse" x="194" y="275" width="19" height="52">
<path d="M212.89 275.82H194.51V326.66H212.89V275.82Z" fill="white"/>
</mask>
<g mask="url(#mask8_4_2)">
<path d="M212.89 275.81H194.51V326.65H212.89V275.81Z" fill="url(#paint8_linear_4_2)"/>
</g>
<mask id="mask9_4_2" style="mask-type:luminance" maskUnits="userSpaceOnUse" x="277" y="390" width="19" height="58">
<path d="M295.63 390.36H277.25V447.31H295.63V390.36Z" fill="white"/>
</mask>
<g mask="url(#mask9_4_2)">
<path d="M295.63 390.35H277.25V447.3H295.63V390.35Z" fill="url(#paint9_linear_4_2)"/>
</g>
<mask id="mask10_4_2" style="mask-type:luminance" maskUnits="userSpaceOnUse" x="407" y="334" width="33" height="33">
<path d="M437.88 353.66L426.311 365.24C425.473 366.075 424.338 366.543 423.155 366.543C421.973 366.543 420.838 366.075 420 365.24L408.42 353.66C407.586 352.822 407.117 351.688 407.117 350.505C407.117 349.322 407.586 348.188 408.42 347.35L420 335.78C420.838 334.946 421.973 334.477 423.155 334.477C424.338 334.477 425.473 334.946 426.311 335.78L437.88 347.35C438.715 348.188 439.184 349.322 439.184 350.505C439.184 351.688 438.715 352.822 437.88 353.66Z" fill="white"/>
</mask>
<g mask="url(#mask10_4_2)">
<path d="M439.621 334.04H406.681V366.97H439.621V334.04Z" fill="url(#paint10_linear_4_2)"/>
</g>
<mask id="mask11_4_2" style="mask-type:luminance" maskUnits="userSpaceOnUse" x="245" y="295" width="33" height="33">
<path d="M276.371 314.75L264.8 326.35C263.962 327.185 262.828 327.654 261.646 327.654C260.463 327.654 259.329 327.185 258.491 326.35L246.911 314.78C246.078 313.941 245.611 312.807 245.611 311.625C245.611 310.443 246.078 309.309 246.911 308.47L258.491 296.89C259.33 296.058 260.464 295.591 261.646 295.591C262.827 295.591 263.961 296.058 264.8 296.89L276.371 308.47C277.205 309.308 277.674 310.442 277.674 311.625C277.674 312.808 277.205 313.942 276.371 314.78" fill="white"/>
</mask>
<g mask="url(#mask11_4_2)">
<path d="M278.111 295.12H245.171V328.06H278.111V295.12Z" fill="url(#paint11_linear_4_2)"/>
</g>
<mask id="mask12_4_2" style="mask-type:luminance" maskUnits="userSpaceOnUse" x="148" y="152" width="20" height="20">
<path d="M167.11 163.73L160.19 170.65C159.688 171.149 159.008 171.43 158.3 171.43C157.591 171.43 156.912 171.149 156.41 170.65L149.48 163.73C148.98 163.228 148.7 162.549 148.7 161.84C148.7 161.132 148.98 160.452 149.48 159.95L156.41 153.02C156.912 152.521 157.591 152.24 158.3 152.24C159.008 152.24 159.688 152.521 160.19 153.02L167.11 159.95C167.609 160.452 167.89 161.132 167.89 161.84C167.89 162.549 167.609 163.228 167.11 163.73Z" fill="white"/>
</mask>
<g mask="url(#mask12_4_2)">
<path d="M168.151 151.98H148.44V171.69H168.151V151.98Z" fill="url(#paint12_linear_4_2)"/>
</g>
<mask id="mask13_4_2" style="mask-type:luminance" maskUnits="userSpaceOnUse" x="152" y="362" width="26" height="26">
<path d="M176.5 377.28L167.5 386.28C166.847 386.929 165.965 387.293 165.044 387.293C164.124 387.293 163.242 386.929 162.589 386.28L153.589 377.28C152.94 376.628 152.576 375.745 152.576 374.825C152.576 373.905 152.94 373.022 153.589 372.37L162.589 363.37C163.242 362.721 164.124 362.356 165.044 362.356C165.965 362.356 166.847 362.721 167.5 363.37L176.5 372.37C177.149 373.022 177.513 373.905 177.513 374.825C177.513 375.745 177.149 376.628 176.5 377.28Z" fill="white"/>
</mask>
<g mask="url(#mask13_4_2)">
<path d="M177.849 362H152.199V387.65H177.849V362Z" fill="url(#paint13_linear_4_2)"/>
</g>
<mask id="mask14_4_2" style="mask-type:luminance" maskUnits="userSpaceOnUse" x="404" y="135" width="23" height="23">
<path d="M425.851 148.8L417.67 156.98C417.078 157.57 416.276 157.901 415.44 157.901C414.605 157.901 413.803 157.57 413.21 156.98L405.03 148.8C404.44 148.208 404.109 147.406 404.109 146.57C404.109 145.734 404.44 144.933 405.03 144.34L413.21 136.16C413.803 135.57 414.605 135.239 415.44 135.239C416.276 135.239 417.078 135.57 417.67 136.16L425.851 144.34C426.438 144.934 426.768 145.735 426.768 146.57C426.768 147.405 426.438 148.207 425.851 148.8Z" fill="white"/>
</mask>
<g mask="url(#mask14_4_2)">
<path d="M427.071 134.93H403.801V158.2H427.071V134.93Z" fill="url(#paint14_linear_4_2)"/>
</g>
<defs>
<linearGradient id="paint0_linear_4_2" x1="140.901" y1="132.12" x2="465.601" y2="391.49" gradientUnits="userSpaceOnUse">
<stop stop-color="#6200EA"/>
<stop offset="0.46" stop-color="#304FFE"/>
<stop offset="1" stop-color="#40C4FF"/>
</linearGradient>
<linearGradient id="paint1_linear_4_2" x1="188.6" y1="72.4101" x2="513.29" y2="331.79" gradientUnits="userSpaceOnUse">
<stop stop-color="#6200EA"/>
<stop offset="0.46" stop-color="#304FFE"/>
<stop offset="1" stop-color="#40C4FF"/>
</linearGradient>
<linearGradient id="paint2_linear_4_2" x1="140.899" y1="132.12" x2="465.599" y2="391.49" gradientUnits="userSpaceOnUse">
<stop stop-color="#6200EA"/>
<stop offset="0.46" stop-color="#304FFE"/>
<stop offset="1" stop-color="#40C4FF"/>
</linearGradient>
<linearGradient id="paint3_linear_4_2" x1="205.73" y1="50.97" x2="530.42" y2="310.34" gradientUnits="userSpaceOnUse">
<stop stop-color="#6200EA"/>
<stop offset="0.46" stop-color="#304FFE"/>
<stop offset="1" stop-color="#40C4FF"/>
</linearGradient>
<linearGradient id="paint4_linear_4_2" x1="230.389" y1="20.1" x2="555.079" y2="279.47" gradientUnits="userSpaceOnUse">
<stop stop-color="#6200EA"/>
<stop offset="0.46" stop-color="#304FFE"/>
<stop offset="1" stop-color="#40C4FF"/>
</linearGradient>
<linearGradient id="paint5_linear_4_2" x1="150.96" y1="119.53" x2="475.65" y2="378.91" gradientUnits="userSpaceOnUse">
<stop stop-color="#6200EA"/>
<stop offset="0.46" stop-color="#304FFE"/>
<stop offset="1" stop-color="#40C4FF"/>
</linearGradient>
<linearGradient id="paint6_linear_4_2" x1="252.48" y1="-7.56996" x2="577.18" y2="251.81" gradientUnits="userSpaceOnUse">
<stop stop-color="#6200EA"/>
<stop offset="0.46" stop-color="#304FFE"/>
<stop offset="1" stop-color="#40C4FF"/>
</linearGradient>
<linearGradient id="paint7_linear_4_2" x1="137.28" y1="136.65" x2="461.97" y2="396.03" gradientUnits="userSpaceOnUse">
<stop stop-color="#6200EA"/>
<stop offset="0.46" stop-color="#304FFE"/>
<stop offset="1" stop-color="#40C4FF"/>
</linearGradient>
<linearGradient id="paint8_linear_4_2" x1="82.8897" y1="204.73" x2="407.59" y2="464.11" gradientUnits="userSpaceOnUse">
<stop stop-color="#6200EA"/>
<stop offset="0.46" stop-color="#304FFE"/>
<stop offset="1" stop-color="#40C4FF"/>
</linearGradient>
<linearGradient id="paint9_linear_4_2" x1="57.78" y1="236.17" x2="382.48" y2="495.54" gradientUnits="userSpaceOnUse">
<stop stop-color="#6200EA"/>
<stop offset="0.46" stop-color="#304FFE"/>
<stop offset="1" stop-color="#40C4FF"/>
</linearGradient>
<linearGradient id="paint10_linear_4_2" x1="144.35" y1="127.79" x2="469.051" y2="387.17" gradientUnits="userSpaceOnUse">
<stop stop-color="#6200EA"/>
<stop offset="0.46" stop-color="#304FFE"/>
<stop offset="1" stop-color="#40C4FF"/>
</linearGradient>
<linearGradient id="paint11_linear_4_2" x1="100.411" y1="182.8" x2="425.111" y2="442.181" gradientUnits="userSpaceOnUse">
<stop stop-color="#6200EA"/>
<stop offset="0.46" stop-color="#304FFE"/>
<stop offset="1" stop-color="#40C4FF"/>
</linearGradient>
<linearGradient id="paint12_linear_4_2" x1="133.18" y1="141.78" x2="457.881" y2="401.151" gradientUnits="userSpaceOnUse">
<stop stop-color="#6200EA"/>
<stop offset="0.46" stop-color="#304FFE"/>
<stop offset="1" stop-color="#40C4FF"/>
</linearGradient>
<linearGradient id="paint13_linear_4_2" x1="31.9391" y1="268.51" x2="356.639" y2="527.89" gradientUnits="userSpaceOnUse">
<stop stop-color="#6200EA"/>
<stop offset="0.46" stop-color="#304FFE"/>
<stop offset="1" stop-color="#40C4FF"/>
</linearGradient>
<linearGradient id="paint14_linear_4_2" x1="240.801" y1="7.06029" x2="565.49" y2="266.441" gradientUnits="userSpaceOnUse">
<stop stop-color="#6200EA"/>
<stop offset="0.46" stop-color="#304FFE"/>
<stop offset="1" stop-color="#40C4FF"/>
</linearGradient>
</defs>
</svg>
