<svg width="562" height="707" viewBox="0 0 562 707" fill="none" xmlns="http://www.w3.org/2000/svg">
<path d="M78.0698 657.73H99.7798V586.18L78.0698 601.1V657.73ZM50.0698 600.03L16.8198 550.03H0.149902V657.75H21.8599V596.51L50.0298 638.83L99.7598 563.88V550.01H83.1499L50.0698 600.03ZM174.15 582.48L189.39 619.42H155.67L184.15 550.01H160.91L116.72 657.73H139.81L147.97 638.65H197.24L205.24 657.73H228.34L191.54 567.56L174.15 582.48ZM303 568.79V550.01H274.52L283.91 568.79H303ZM217.41 568.79H249.15V657.73H271.32V550.01H217.44L217.41 568.79ZM383.36 625.73L365.36 637.42L381.84 657.73H409.24L383.36 625.73ZM341.64 625.88C348.733 625.88 354.507 625.907 358.96 625.96C363.43 626.01 367.17 625.96 370.2 625.8C372.792 625.71 375.37 625.375 377.9 624.8C380.256 624.2 382.55 623.376 384.75 622.34C391.178 619.399 396.646 614.707 400.53 608.8C404.596 602.701 406.716 595.51 406.61 588.18C406.636 583.077 405.615 578.023 403.61 573.33C401.696 568.79 398.926 564.662 395.45 561.17C391.995 557.723 387.925 554.956 383.45 553.01C378.812 550.997 373.806 549.975 368.75 550.01H319.95V657.73H341.65L341.64 625.88ZM341.64 568.94H368.74C370.953 568.931 373.14 569.431 375.13 570.4C377.108 571.365 378.883 572.699 380.36 574.33C381.856 575.981 383.054 577.879 383.9 579.94C384.764 582.012 385.209 584.235 385.21 586.48C385.21 591.92 383.62 596.253 380.44 599.48C378.93 601.052 377.111 602.295 375.098 603.13C373.084 603.964 370.919 604.373 368.74 604.33H341.64V568.94ZM423.85 657.73H446.33V550.01H423.85V657.73ZM460.95 657.73H487.15L509.62 625.42L490.23 615.57L460.95 657.73ZM524.38 603.73L561.64 550.02H535.31L511.45 589.26L487.45 550.02H461.25L498.35 603.73L511.44 622.66L535.61 657.74H561.94L524.38 603.73ZM16.5298 533.66H52.6997C53.8926 533.667 55.0752 533.436 56.1782 532.982C57.2812 532.528 58.2824 531.859 59.1245 531.014C59.9666 530.169 60.6323 529.165 61.083 528.061C61.5337 526.956 61.7606 525.773 61.75 524.58V512.39C61.7606 511.197 61.5337 510.014 61.083 508.91C60.6323 507.805 59.9666 506.802 59.1245 505.957C58.2824 505.112 57.2812 504.443 56.1782 503.988C55.0752 503.534 53.8926 503.304 52.6997 503.31H16.5298C16.1469 503.316 15.7666 503.246 15.4111 503.104C15.0557 502.961 14.7325 502.749 14.46 502.48C14.1795 502.218 13.957 501.901 13.8071 501.548C13.6573 501.194 13.5833 500.814 13.5898 500.43V488.25C13.5846 487.862 13.6589 487.478 13.8086 487.12C13.9583 486.762 14.1802 486.439 14.46 486.17C14.7263 485.89 15.0476 485.668 15.4038 485.519C15.7601 485.369 16.1434 485.295 16.5298 485.3H52.6997C53.0875 485.295 53.4723 485.37 53.8301 485.519C54.1879 485.669 54.5112 485.89 54.7798 486.17C55.0564 486.441 55.2755 486.765 55.4233 487.122C55.5712 487.48 55.6449 487.863 55.6401 488.25V490.37H61.75V488.25C61.7606 487.057 61.5337 485.874 61.083 484.77C60.6323 483.665 59.9666 482.661 59.1245 481.817C58.2824 480.972 57.2812 480.303 56.1782 479.848C55.0752 479.394 53.8926 479.163 52.6997 479.17H16.5298C15.3411 479.17 14.1646 479.406 13.0674 479.863C11.9702 480.32 10.9745 480.99 10.1377 481.835C9.30091 482.679 8.63945 483.68 8.19189 484.781C7.74434 485.883 7.51922 487.062 7.52979 488.25V500.43C7.51789 501.62 7.742 502.8 8.18896 503.902C8.63593 505.004 9.29687 506.007 10.1338 506.852C10.9707 507.697 11.9671 508.369 13.0649 508.827C14.1628 509.285 15.3403 509.52 16.5298 509.52H52.6997C53.0843 509.513 53.4665 509.582 53.8237 509.725C54.181 509.867 54.5061 510.08 54.7798 510.35C55.0512 510.608 55.2677 510.918 55.4155 511.262C55.5634 511.606 55.6399 511.976 55.6401 512.35V524.54C55.6449 524.927 55.5712 525.311 55.4233 525.669C55.2755 526.026 55.0564 526.35 54.7798 526.62C54.5112 526.9 54.1879 527.121 53.8301 527.271C53.4723 527.421 53.0875 527.496 52.6997 527.49H16.5298C16.1434 527.496 15.7601 527.421 15.4038 527.272C15.0476 527.122 14.7263 526.9 14.46 526.62C14.1802 526.352 13.9583 526.028 13.8086 525.671C13.6589 525.313 13.5846 524.928 13.5898 524.54V522.42H7.48975V524.54C7.47918 525.729 7.7043 526.908 8.15186 528.009C8.59941 529.11 9.26087 530.111 10.0977 530.956C10.9344 531.8 11.9302 532.47 13.0273 532.927C14.1245 533.385 15.3011 533.62 16.4897 533.62L16.5298 533.66ZM136.15 486.12L160.95 515.71L185.74 486.12V533.65H191.85V479.16H183.48L160.95 506.1L138.41 479.16H130.05V533.65H136.15V486.12ZM266.53 513.75H308.58V533.65H314.69V488.24C314.701 487.048 314.474 485.864 314.023 484.76C313.573 483.655 312.907 482.652 312.065 481.807C311.223 480.962 310.221 480.293 309.118 479.839C308.015 479.384 306.833 479.154 305.64 479.16H269.47C268.281 479.16 267.105 479.395 266.007 479.853C264.91 480.31 263.914 480.98 263.078 481.824C262.241 482.669 261.579 483.67 261.132 484.772C260.684 485.873 260.459 487.052 260.47 488.24V533.65H266.57L266.53 513.75ZM266.53 488.24C266.53 487.455 266.838 486.701 267.387 486.14C267.937 485.579 268.685 485.256 269.47 485.24H305.64C306.028 485.235 306.413 485.309 306.771 485.459C307.128 485.609 307.451 485.83 307.72 486.11C307.996 486.381 308.215 486.705 308.363 487.062C308.511 487.42 308.585 487.803 308.58 488.19V507.56H266.53V488.24ZM389.6 513.06C390.574 513.217 391.555 513.32 392.54 513.37H412.43L429.43 533.65H437.49L420.49 513.37H428.78C429.973 513.392 431.158 513.167 432.26 512.712C433.363 512.256 434.36 511.578 435.19 510.72C436.042 509.882 436.715 508.878 437.167 507.771C437.62 506.663 437.842 505.476 437.82 504.28V488.28C437.83 487.092 437.605 485.913 437.158 484.812C436.71 483.71 436.049 482.709 435.212 481.864C434.376 481.02 433.38 480.35 432.283 479.893C431.186 479.435 430.008 479.2 428.82 479.2H383.6V533.62H389.71L389.6 513.06ZM389.6 488.31C389.596 487.924 389.671 487.54 389.818 487.183C389.966 486.825 390.184 486.501 390.46 486.23C390.729 485.95 391.052 485.729 391.41 485.579C391.767 485.43 392.152 485.355 392.54 485.36H428.71C429.086 485.357 429.458 485.434 429.802 485.584C430.147 485.733 430.456 485.953 430.71 486.23C430.98 486.504 431.192 486.83 431.334 487.187C431.477 487.544 431.547 487.926 431.54 488.31V504.31C431.547 504.689 431.478 505.065 431.336 505.416C431.195 505.767 430.985 506.086 430.718 506.355C430.452 506.623 430.134 506.835 429.784 506.979C429.434 507.122 429.058 507.194 428.68 507.19H392.51C392.126 507.195 391.744 507.125 391.387 506.983C391.03 506.84 390.705 506.628 390.43 506.36C390.152 506.097 389.932 505.778 389.784 505.425C389.636 505.073 389.563 504.693 389.57 504.31L389.6 488.31ZM527.43 533.65H533.54V485.31H557.54V479.18H503.28V485.31H527.39L527.43 533.65ZM246.93 681.03H256.3V706.44H258.3V681.03H267.67V679.2H246.93V681.03ZM275.74 693.64H291.15V691.81H275.75V681.03H292.88V679.2H273.75V706.44H293.15V704.61H275.83L275.74 693.64ZM316.8 703.99C315.217 704.742 313.481 705.111 311.73 705.07C310.178 705.087 308.642 704.763 307.23 704.12C305.868 703.503 304.647 702.615 303.64 701.51C302.605 700.374 301.791 699.055 301.24 697.62C300.644 696.091 300.346 694.461 300.36 692.82V692.74C300.348 691.108 300.639 689.486 301.22 687.96C301.765 686.533 302.573 685.221 303.6 684.09C304.604 682.987 305.827 682.105 307.19 681.5C308.607 680.874 310.141 680.556 311.69 680.57C312.626 680.561 313.559 680.666 314.47 680.88C315.29 681.073 316.088 681.352 316.85 681.71C317.579 682.061 318.269 682.487 318.91 682.98C319.553 683.474 320.168 684.005 320.75 684.57L322.17 683.09C321.493 682.461 320.782 681.87 320.04 681.32C319.305 680.787 318.521 680.325 317.7 679.94C316.833 679.542 315.924 679.244 314.99 679.05C313.917 678.832 312.825 678.728 311.73 678.74C309.878 678.72 308.043 679.099 306.35 679.85C304.748 680.558 303.304 681.578 302.1 682.85C300.895 684.159 299.945 685.682 299.3 687.34C298.623 689.077 298.284 690.926 298.3 692.79V692.87C298.29 694.743 298.63 696.601 299.3 698.35C299.933 700.003 300.88 701.518 302.09 702.81C303.323 704.107 304.81 705.137 306.458 705.836C308.106 706.534 309.88 706.886 311.67 706.87C312.767 706.883 313.861 706.765 314.93 706.52C315.895 706.295 316.831 705.959 317.72 705.52C318.578 705.109 319.39 704.606 320.14 704.02C320.912 703.422 321.65 702.781 322.35 702.1L321 700.77C319.798 702.063 318.392 703.151 316.84 703.99H316.8ZM347.02 691.85H329.82V679.2H327.82V706.44H329.82V693.68H347.02V706.44H349.02V679.2H347.02V691.85ZM377.44 702.9L358.89 679.2H357.01V706.44H358.93V682.24L377.87 706.44H379.36V679.2H377.44V702.9ZM409.52 682.96C408.318 681.66 406.866 680.616 405.25 679.89C402.691 678.719 399.827 678.388 397.068 678.943C394.31 679.498 391.797 680.911 389.89 682.98C388.703 684.294 387.771 685.816 387.14 687.47C386.48 689.177 386.141 690.99 386.14 692.82V692.9C386.145 694.723 386.484 696.53 387.14 698.23C387.756 699.875 388.683 701.386 389.87 702.68C391.804 704.703 394.312 706.083 397.055 706.634C399.799 707.185 402.645 706.88 405.21 705.76C406.837 705.031 408.297 703.976 409.5 702.66C410.686 701.348 411.615 699.825 412.24 698.17C412.905 696.465 413.244 694.65 413.24 692.82C413.24 692.82 413.24 692.77 413.24 692.74C413.234 690.918 412.895 689.111 412.24 687.41C411.635 685.771 410.726 684.261 409.56 682.96H409.52ZM411.13 692.9C411.144 694.519 410.856 696.127 410.28 697.64C409.749 699.07 408.948 700.384 407.92 701.51C406.317 703.217 404.223 704.383 401.928 704.847C399.633 705.311 397.25 705.05 395.11 704.1C393.737 703.479 392.502 702.588 391.48 701.48C390.452 700.342 389.645 699.023 389.1 697.59C388.519 696.068 388.227 694.45 388.24 692.82V692.74C388.228 691.122 388.513 689.516 389.08 688C389.611 686.571 390.412 685.256 391.44 684.13C392.456 683.027 393.684 682.139 395.05 681.52C396.501 680.887 398.067 680.56 399.65 680.56C401.233 680.56 402.799 680.887 404.25 681.52C405.623 682.142 406.857 683.033 407.88 684.14C408.911 685.276 409.718 686.596 410.26 688.03C410.845 689.552 411.14 691.17 411.13 692.8V692.9ZM422 679.2H420V706.44H437.78V704.61H422V679.2ZM464.4 682.96C463.2 681.662 461.751 680.618 460.14 679.89C457.579 678.722 454.714 678.391 451.955 678.946C449.195 679.501 446.68 680.913 444.77 682.98C443.586 684.294 442.657 685.817 442.03 687.47C441.369 689.177 441.03 690.99 441.03 692.82V692.9C441.034 694.723 441.373 696.53 442.03 698.23C442.646 699.875 443.573 701.386 444.76 702.68C445.997 704.04 447.51 705.12 449.199 705.848C450.887 706.576 452.712 706.934 454.55 706.9C456.46 706.923 458.353 706.534 460.1 705.76C461.725 705.033 463.182 703.978 464.38 702.66C465.572 701.351 466.505 699.827 467.13 698.17C467.79 696.464 468.129 694.65 468.13 692.82C468.14 692.809 468.145 692.795 468.145 692.78C468.145 692.766 468.14 692.751 468.13 692.74C468.124 690.918 467.786 689.111 467.13 687.41C466.526 685.769 465.612 684.258 464.44 682.96H464.4ZM466.02 692.9C466.029 694.519 465.74 696.125 465.17 697.64C464.639 699.07 463.838 700.384 462.81 701.51C461.207 703.217 459.113 704.383 456.818 704.847C454.523 705.311 452.14 705.05 450 704.1C448.627 703.479 447.393 702.588 446.37 701.48C445.339 700.345 444.531 699.025 443.99 697.59C443.405 696.068 443.11 694.45 443.12 692.82V692.74C443.106 691.121 443.394 689.513 443.97 688C444.5 686.571 445.302 685.256 446.33 684.13C447.368 682.992 448.636 682.086 450.049 681.473C451.462 680.859 452.989 680.551 454.53 680.57C456.121 680.561 457.695 680.903 459.14 681.57C460.513 682.192 461.748 683.083 462.77 684.19C463.798 685.328 464.605 686.647 465.15 688.08C465.735 689.602 466.03 691.22 466.02 692.85V692.9ZM486.87 694.18H495.87V701.97C495.342 702.415 494.776 702.813 494.18 703.16C493.52 703.547 492.832 703.882 492.12 704.16C491.368 704.454 490.591 704.681 489.8 704.84C488.977 705.009 488.14 705.092 487.3 705.09C485.646 705.117 484.005 704.801 482.48 704.16C481.103 703.572 479.866 702.7 478.85 701.6C477.828 700.476 477.051 699.151 476.57 697.71C476.03 696.137 475.762 694.483 475.78 692.82V692.74C475.773 691.151 476.047 689.574 476.59 688.08C477.101 686.656 477.875 685.34 478.87 684.2C479.854 683.092 481.051 682.194 482.39 681.56C483.791 680.89 485.327 680.548 486.88 680.56C488.61 680.504 490.333 680.821 491.93 681.49C493.235 682.085 494.445 682.87 495.52 683.82L496.83 682.31C496.183 681.752 495.494 681.244 494.77 680.79C494.066 680.346 493.323 679.968 492.55 679.66C491.729 679.341 490.878 679.106 490.01 678.96C489.018 678.802 488.014 678.725 487.01 678.73C485.126 678.707 483.261 679.103 481.55 679.89C479.954 680.637 478.526 681.699 477.35 683.01C476.169 684.317 475.255 685.842 474.66 687.5C474.031 689.2 473.713 690.998 473.72 692.81V692.89C473.704 694.737 474.015 696.572 474.64 698.31C475.221 699.957 476.121 701.473 477.29 702.77C478.476 704.058 479.921 705.08 481.53 705.77C483.334 706.536 485.28 706.914 487.24 706.88C489.304 706.904 491.349 706.488 493.24 705.66C494.891 704.945 496.426 703.984 497.79 702.81V692.31H486.88L486.87 694.18ZM505.27 706.44H507.27V679.2H505.27V706.44ZM517.52 693.64H532.92V691.81H517.52V681.03H534.65V679.2H515.52V706.44H534.84V704.61H517.52V693.64ZM557.2 694.55C555.806 693.37 553.553 692.457 550.44 691.81C549.108 691.545 547.798 691.181 546.52 690.72C545.656 690.418 544.846 689.979 544.12 689.42C543.59 689 543.179 688.448 542.93 687.82C542.697 687.179 542.586 686.501 542.6 685.82V685.74C542.597 685.047 542.755 684.363 543.06 683.74C543.377 683.102 543.832 682.542 544.39 682.1C545.007 681.608 545.708 681.232 546.46 680.99C547.335 680.708 548.25 680.57 549.17 680.58C552.135 680.529 555.004 681.634 557.17 683.66L558.44 682.06C557.19 681.016 555.783 680.175 554.27 679.57C552.665 679.003 550.972 678.729 549.27 678.76C548.095 678.747 546.925 678.93 545.81 679.3C544.813 679.632 543.887 680.147 543.08 680.82C542.328 681.443 541.715 682.216 541.28 683.09C540.839 683.964 540.613 684.931 540.62 685.91V685.99C540.604 686.934 540.774 687.872 541.12 688.75C541.473 689.576 542.022 690.304 542.72 690.87C543.568 691.551 544.52 692.092 545.54 692.47C546.889 692.979 548.277 693.377 549.69 693.66C550.969 693.887 552.227 694.221 553.45 694.66C554.288 694.954 555.075 695.379 555.78 695.92C556.305 696.328 556.715 696.866 556.97 697.48C557.195 698.102 557.304 698.759 557.29 699.42V699.5C557.299 700.249 557.131 700.989 556.8 701.66C556.461 702.321 555.987 702.904 555.41 703.37C554.771 703.879 554.041 704.263 553.26 704.5C552.367 704.779 551.436 704.918 550.5 704.91C549.57 704.915 548.642 704.828 547.73 704.65C546.899 704.492 546.088 704.244 545.31 703.91C544.517 703.58 543.763 703.164 543.06 702.67C542.283 702.122 541.548 701.517 540.86 700.86L539.55 702.38C541.023 703.741 542.713 704.846 544.55 705.65C546.399 706.393 548.378 706.76 550.37 706.73C551.588 706.744 552.8 706.561 553.96 706.19C554.983 705.863 555.936 705.347 556.77 704.67C557.545 704.028 558.173 703.226 558.61 702.32C559.06 701.384 559.289 700.358 559.28 699.32V699.31C559.317 698.415 559.153 697.523 558.8 696.699C558.447 695.875 557.914 695.141 557.24 694.55H557.2Z" fill="#141414"/>
<mask id="mask0_1_83" style="mask-type:luminance" maskUnits="userSpaceOnUse" x="129" y="92" width="315" height="315">
<path d="M304.98 369.12L378.53 295.57V336.63L324.86 390.31C319.247 395.934 312.458 400.244 304.98 402.93V369.12ZM185.47 212.31L166.15 231.61C161.469 236.323 158.841 242.697 158.841 249.34C158.841 255.983 161.469 262.356 166.15 267.07L213.04 313.95V336.38H222.23V323.14L268.85 369.77C272.315 373.209 276.705 375.569 281.485 376.561C286.266 377.553 291.232 377.136 295.78 375.36V405.36C287.247 406.842 278.484 406.254 270.227 403.643C261.969 401.033 254.46 396.477 248.33 390.36L145.63 287.66C135.5 277.504 129.812 263.744 129.812 249.4C129.812 235.055 135.5 221.297 145.63 211.14L185.46 171.31L185.47 212.31ZM268.21 129.57L194.66 203.12V162.07L248.33 108.39C253.946 102.77 260.734 98.46 268.21 95.77V129.57ZM350.96 175.57L304.33 128.94C300.866 125.499 296.475 123.14 291.694 122.149C286.912 121.158 281.946 121.579 277.4 123.36V93.3598C285.934 91.8799 294.698 92.4699 302.957 95.08C311.215 97.6902 318.727 102.244 324.86 108.36L350.96 134.46V175.57ZM427.56 287.63L387.72 327.46V286.41L407.03 267.11C411.714 262.396 414.343 256.02 414.343 249.375C414.343 242.729 411.714 236.354 407.03 231.64L360.15 184.73V143.67L427.55 211.08C437.681 221.235 443.371 234.993 443.373 249.338C443.375 263.682 437.688 277.442 427.56 287.6V287.63Z" fill="white"/>
</mask>
<g mask="url(#mask0_1_83)">
<path d="M448.64 90.48H124.54V408.19H448.64V90.48Z" fill="url(#paint0_linear_1_83)"/>
</g>
<mask id="mask1_1_83" style="mask-type:luminance" maskUnits="userSpaceOnUse" x="277" y="62" width="19" height="179">
<path d="M295.78 62.6499H277.4V240.42H295.78V62.6499Z" fill="white"/>
</mask>
<g mask="url(#mask1_1_83)">
<path d="M295.78 62.65H277.4V240.42H295.78V62.65Z" fill="url(#paint1_linear_1_83)"/>
</g>
<mask id="mask2_1_83" style="mask-type:luminance" maskUnits="userSpaceOnUse" x="248" y="211" width="77" height="77">
<path d="M321.729 256.87L294.149 284.48C292.15 286.469 289.445 287.585 286.625 287.585C283.804 287.585 281.099 286.469 279.1 284.48L251.489 256.87C249.495 254.872 248.375 252.163 248.375 249.34C248.375 246.516 249.495 243.809 251.489 241.81L279.1 214.2C281.099 212.211 283.804 211.095 286.625 211.095C289.445 211.095 292.15 212.211 294.149 214.2L321.759 241.81C323.754 243.809 324.874 246.516 324.874 249.34C324.874 252.163 323.754 254.872 321.759 256.87" fill="white"/>
</mask>
<g mask="url(#mask2_1_83)">
<path d="M325.88 210.06H247.31V288.63H325.88V210.06Z" fill="url(#paint2_linear_1_83)"/>
</g>
<mask id="mask3_1_83" style="mask-type:luminance" maskUnits="userSpaceOnUse" x="165" y="12" width="78" height="77">
<path d="M238.99 57.8398L211.38 85.4502C209.385 87.4288 206.689 88.5386 203.88 88.5386C201.07 88.5386 198.375 87.4288 196.38 85.4502L168.77 57.8398C166.776 55.843 165.656 53.1367 165.656 50.3149C165.656 47.4932 166.776 44.7868 168.77 42.79L196.38 15.1802C198.375 13.2016 201.07 12.0913 203.88 12.0913C206.689 12.0913 209.385 13.2016 211.38 15.1802L238.99 42.79C240.984 44.7868 242.104 47.4932 242.104 50.3149C242.104 53.1367 240.984 55.843 238.99 57.8398Z" fill="white"/>
</mask>
<g mask="url(#mask3_1_83)">
<path d="M243.14 11.03H164.57V89.6H243.14V11.03Z" fill="url(#paint3_linear_1_83)"/>
</g>
<mask id="mask4_1_83" style="mask-type:luminance" maskUnits="userSpaceOnUse" x="331" y="34" width="77" height="196">
<path d="M360.15 106.7V229.93H378.53V106.7L404.48 80.7002C406.454 78.7029 407.561 76.0082 407.561 73.2002C407.561 70.3922 406.454 67.6975 404.48 65.7002L376.87 38.0898C374.872 36.0954 372.163 34.9756 369.34 34.9756C366.516 34.9756 363.809 36.0954 361.81 38.0898L334.2 65.7002C332.226 67.6975 331.119 70.3922 331.119 73.2002C331.119 76.0082 332.226 78.7029 334.2 80.7002L360.15 106.7Z" fill="white"/>
</mask>
<g mask="url(#mask4_1_83)">
<path d="M408.62 33.94H330.05V229.93H408.62V33.94Z" fill="url(#paint4_linear_1_83)"/>
</g>
<mask id="mask5_1_83" style="mask-type:luminance" maskUnits="userSpaceOnUse" x="194" y="107" width="20" height="111">
<path d="M213.04 107.27H194.66V217.99H213.04V107.27Z" fill="white"/>
</mask>
<g mask="url(#mask5_1_83)">
<path d="M213.04 107.27H194.66V217.99H213.04V107.27Z" fill="url(#paint5_linear_1_83)"/>
</g>
<mask id="mask6_1_83" style="mask-type:luminance" maskUnits="userSpaceOnUse" x="277" y="0" width="19" height="41">
<path d="M295.78 0.959961H277.4V40.1001H295.78V0.959961Z" fill="white"/>
</mask>
<g mask="url(#mask6_1_83)">
<path d="M295.78 0.950012H277.4V40.09H295.78V0.950012Z" fill="url(#paint6_linear_1_83)"/>
</g>
<mask id="mask7_1_83" style="mask-type:luminance" maskUnits="userSpaceOnUse" x="360" y="271" width="19" height="104">
<path d="M378.53 271.72H360.15V374.03H378.53V271.72Z" fill="white"/>
</mask>
<g mask="url(#mask7_1_83)">
<path d="M378.53 271.72H360.15V374.03H378.53V271.72Z" fill="url(#paint7_linear_1_83)"/>
</g>
<mask id="mask8_1_83" style="mask-type:luminance" maskUnits="userSpaceOnUse" x="194" y="276" width="20" height="52">
<path d="M213.04 276.78H194.66V327.62H213.04V276.78Z" fill="white"/>
</mask>
<g mask="url(#mask8_1_83)">
<path d="M213.04 276.77H194.66V327.61H213.04V276.77Z" fill="url(#paint8_linear_1_83)"/>
</g>
<mask id="mask9_1_83" style="mask-type:luminance" maskUnits="userSpaceOnUse" x="277" y="391" width="19" height="58">
<path d="M295.78 391.32H277.4V448.27H295.78V391.32Z" fill="white"/>
</mask>
<g mask="url(#mask9_1_83)">
<path d="M295.78 391.31H277.4V448.26H295.78V391.31Z" fill="url(#paint9_linear_1_83)"/>
</g>
<mask id="mask10_1_83" style="mask-type:luminance" maskUnits="userSpaceOnUse" x="407" y="335" width="33" height="33">
<path d="M438.03 354.62L426.46 366.2C425.622 367.035 424.487 367.503 423.305 367.503C422.122 367.503 420.988 367.035 420.15 366.2L408.57 354.62C407.735 353.782 407.267 352.648 407.267 351.465C407.267 350.282 407.735 349.148 408.57 348.31L420.15 336.74C420.988 335.905 422.122 335.437 423.305 335.437C424.487 335.437 425.622 335.905 426.46 336.74L438.03 348.31C438.865 349.148 439.333 350.282 439.333 351.465C439.333 352.648 438.865 353.782 438.03 354.62Z" fill="white"/>
</mask>
<g mask="url(#mask10_1_83)">
<path d="M439.77 335H406.83V367.93H439.77V335Z" fill="url(#paint10_linear_1_83)"/>
</g>
<mask id="mask11_1_83" style="mask-type:luminance" maskUnits="userSpaceOnUse" x="245" y="296" width="33" height="33">
<path d="M276.52 315.71L264.95 327.31C264.112 328.145 262.978 328.614 261.795 328.614C260.612 328.614 259.478 328.145 258.64 327.31L247.06 315.74C246.228 314.901 245.761 313.767 245.761 312.585C245.761 311.403 246.228 310.269 247.06 309.43L258.64 297.85C259.479 297.018 260.613 296.551 261.795 296.551C262.977 296.551 264.111 297.018 264.95 297.85L276.52 309.43C277.355 310.268 277.823 311.402 277.823 312.585C277.823 313.768 277.355 314.902 276.52 315.74" fill="white"/>
</mask>
<g mask="url(#mask11_1_83)">
<path d="M278.26 296.08H245.32V329.02H278.26V296.08Z" fill="url(#paint11_linear_1_83)"/>
</g>
<mask id="mask12_1_83" style="mask-type:luminance" maskUnits="userSpaceOnUse" x="148" y="153" width="21" height="20">
<path d="M167.26 164.69L160.34 171.61C159.838 172.109 159.158 172.39 158.45 172.39C157.741 172.39 157.062 172.109 156.56 171.61L149.63 164.69C149.13 164.188 148.85 163.509 148.85 162.8C148.85 162.092 149.13 161.412 149.63 160.91L156.56 153.98C157.062 153.48 157.741 153.2 158.45 153.2C159.158 153.2 159.838 153.48 160.34 153.98L167.26 160.91C167.759 161.412 168.04 162.092 168.04 162.8C168.04 163.509 167.759 164.188 167.26 164.69Z" fill="white"/>
</mask>
<g mask="url(#mask12_1_83)">
<path d="M168.3 152.94H148.59V172.65H168.3V152.94Z" fill="url(#paint12_linear_1_83)"/>
</g>
<mask id="mask13_1_83" style="mask-type:luminance" maskUnits="userSpaceOnUse" x="152" y="363" width="26" height="26">
<path d="M176.65 378.24L167.65 387.24C166.998 387.889 166.115 388.253 165.195 388.253C164.275 388.253 163.392 387.889 162.74 387.24L153.74 378.24C153.091 377.588 152.727 376.705 152.727 375.785C152.727 374.865 153.091 373.982 153.74 373.33L162.74 364.33C163.392 363.681 164.275 363.316 165.195 363.316C166.115 363.316 166.998 363.681 167.65 364.33L176.65 373.33C177.299 373.982 177.664 374.865 177.664 375.785C177.664 376.705 177.299 377.588 176.65 378.24Z" fill="white"/>
</mask>
<g mask="url(#mask13_1_83)">
<path d="M178 362.96H152.35V388.61H178V362.96Z" fill="url(#paint13_linear_1_83)"/>
</g>
<mask id="mask14_1_83" style="mask-type:luminance" maskUnits="userSpaceOnUse" x="404" y="136" width="23" height="23">
<path d="M426 149.76L417.82 157.94C417.228 158.53 416.426 158.861 415.59 158.861C414.754 158.861 413.952 158.53 413.36 157.94L405.18 149.76C404.59 149.168 404.259 148.366 404.259 147.53C404.259 146.694 404.59 145.893 405.18 145.3L413.36 137.12C413.952 136.53 414.754 136.199 415.59 136.199C416.426 136.199 417.228 136.53 417.82 137.12L426 145.3C426.587 145.894 426.917 146.695 426.917 147.53C426.917 148.365 426.587 149.167 426 149.76Z" fill="white"/>
</mask>
<g mask="url(#mask14_1_83)">
<path d="M427.22 135.89H403.95V159.16H427.22V135.89Z" fill="url(#paint14_linear_1_83)"/>
</g>
<defs>
<linearGradient id="paint0_linear_1_83" x1="141.05" y1="133.08" x2="465.75" y2="392.45" gradientUnits="userSpaceOnUse">
<stop stop-color="#6200EA"/>
<stop offset="0.46" stop-color="#304FFE"/>
<stop offset="1" stop-color="#40C4FF"/>
</linearGradient>
<linearGradient id="paint1_linear_1_83" x1="188.75" y1="73.37" x2="513.44" y2="332.75" gradientUnits="userSpaceOnUse">
<stop stop-color="#6200EA"/>
<stop offset="0.46" stop-color="#304FFE"/>
<stop offset="1" stop-color="#40C4FF"/>
</linearGradient>
<linearGradient id="paint2_linear_1_83" x1="141.05" y1="133.08" x2="465.75" y2="392.45" gradientUnits="userSpaceOnUse">
<stop stop-color="#6200EA"/>
<stop offset="0.46" stop-color="#304FFE"/>
<stop offset="1" stop-color="#40C4FF"/>
</linearGradient>
<linearGradient id="paint3_linear_1_83" x1="205.88" y1="51.93" x2="530.57" y2="311.3" gradientUnits="userSpaceOnUse">
<stop stop-color="#6200EA"/>
<stop offset="0.46" stop-color="#304FFE"/>
<stop offset="1" stop-color="#40C4FF"/>
</linearGradient>
<linearGradient id="paint4_linear_1_83" x1="230.54" y1="21.06" x2="555.23" y2="280.43" gradientUnits="userSpaceOnUse">
<stop stop-color="#6200EA"/>
<stop offset="0.46" stop-color="#304FFE"/>
<stop offset="1" stop-color="#40C4FF"/>
</linearGradient>
<linearGradient id="paint5_linear_1_83" x1="151.11" y1="120.49" x2="475.8" y2="379.87" gradientUnits="userSpaceOnUse">
<stop stop-color="#6200EA"/>
<stop offset="0.46" stop-color="#304FFE"/>
<stop offset="1" stop-color="#40C4FF"/>
</linearGradient>
<linearGradient id="paint6_linear_1_83" x1="252.63" y1="-6.60999" x2="577.331" y2="252.77" gradientUnits="userSpaceOnUse">
<stop stop-color="#6200EA"/>
<stop offset="0.46" stop-color="#304FFE"/>
<stop offset="1" stop-color="#40C4FF"/>
</linearGradient>
<linearGradient id="paint7_linear_1_83" x1="137.43" y1="137.61" x2="462.121" y2="396.99" gradientUnits="userSpaceOnUse">
<stop stop-color="#6200EA"/>
<stop offset="0.46" stop-color="#304FFE"/>
<stop offset="1" stop-color="#40C4FF"/>
</linearGradient>
<linearGradient id="paint8_linear_1_83" x1="83.0401" y1="205.69" x2="407.74" y2="465.07" gradientUnits="userSpaceOnUse">
<stop stop-color="#6200EA"/>
<stop offset="0.46" stop-color="#304FFE"/>
<stop offset="1" stop-color="#40C4FF"/>
</linearGradient>
<linearGradient id="paint9_linear_1_83" x1="57.9303" y1="237.13" x2="382.63" y2="496.5" gradientUnits="userSpaceOnUse">
<stop stop-color="#6200EA"/>
<stop offset="0.46" stop-color="#304FFE"/>
<stop offset="1" stop-color="#40C4FF"/>
</linearGradient>
<linearGradient id="paint10_linear_1_83" x1="144.5" y1="128.75" x2="469.2" y2="388.13" gradientUnits="userSpaceOnUse">
<stop stop-color="#6200EA"/>
<stop offset="0.46" stop-color="#304FFE"/>
<stop offset="1" stop-color="#40C4FF"/>
</linearGradient>
<linearGradient id="paint11_linear_1_83" x1="100.56" y1="183.76" x2="425.26" y2="443.141" gradientUnits="userSpaceOnUse">
<stop stop-color="#6200EA"/>
<stop offset="0.46" stop-color="#304FFE"/>
<stop offset="1" stop-color="#40C4FF"/>
</linearGradient>
<linearGradient id="paint12_linear_1_83" x1="133.33" y1="142.74" x2="458.03" y2="402.111" gradientUnits="userSpaceOnUse">
<stop stop-color="#6200EA"/>
<stop offset="0.46" stop-color="#304FFE"/>
<stop offset="1" stop-color="#40C4FF"/>
</linearGradient>
<linearGradient id="paint13_linear_1_83" x1="32.09" y1="269.47" x2="356.79" y2="528.85" gradientUnits="userSpaceOnUse">
<stop stop-color="#6200EA"/>
<stop offset="0.46" stop-color="#304FFE"/>
<stop offset="1" stop-color="#40C4FF"/>
</linearGradient>
<linearGradient id="paint14_linear_1_83" x1="240.95" y1="8.02025" x2="565.64" y2="267.401" gradientUnits="userSpaceOnUse">
<stop stop-color="#6200EA"/>
<stop offset="0.46" stop-color="#304FFE"/>
<stop offset="1" stop-color="#40C4FF"/>
</linearGradient>
</defs>
</svg>
