<svg width="907" height="449" viewBox="0 0 907 449" fill="none" xmlns="http://www.w3.org/2000/svg">
<mask id="mask0_1_4" style="mask-type:luminance" maskUnits="userSpaceOnUse" x="0" y="92" width="314" height="315">
<path d="M175.318 369.12L248.868 295.57V336.63L195.198 390.31C189.585 395.934 182.796 400.244 175.318 402.93V369.12ZM55.8077 212.31L36.4879 231.61C31.8066 236.323 29.1793 242.697 29.1793 249.34C29.1793 255.983 31.8066 262.356 36.4879 267.07L83.3781 313.95V336.38H92.568V323.14L139.188 369.77C142.653 373.209 147.043 375.569 151.823 376.561C156.604 377.553 161.57 377.136 166.118 375.36V405.36C157.585 406.842 148.822 406.254 140.565 403.643C132.307 401.033 124.798 396.477 118.668 390.36L15.9679 287.66C5.83836 277.504 0.150024 263.744 0.150024 249.4C0.150024 235.055 5.83836 221.297 15.9679 211.14L55.798 171.31L55.8077 212.31ZM138.548 129.57L64.9977 203.12V162.07L118.668 108.39C124.284 102.77 131.072 98.46 138.548 95.77V129.57ZM221.298 175.57L174.668 128.94C171.204 125.499 166.813 123.14 162.032 122.149C157.25 121.158 152.284 121.579 147.738 123.36V93.3598C156.272 91.8799 165.036 92.4699 173.295 95.08C181.553 97.6902 189.065 102.244 195.198 108.36L221.298 134.46V175.57ZM297.898 287.63L258.058 327.46V286.41L277.368 267.11C282.052 262.396 284.681 256.02 284.681 249.375C284.681 242.729 282.052 236.354 277.368 231.64L230.488 184.73V143.67L297.888 211.08C308.019 221.235 313.709 234.993 313.711 249.338C313.713 263.682 308.026 277.442 297.898 287.6V287.63Z" fill="white"/>
</mask>
<g mask="url(#mask0_1_4)">
<path d="M318.978 90.48H-5.12195V408.19H318.978V90.48Z" fill="white"/>
</g>
<mask id="mask1_1_4" style="mask-type:luminance" maskUnits="userSpaceOnUse" x="147" y="62" width="20" height="179">
<path d="M166.118 62.6499H147.738V240.42H166.118V62.6499Z" fill="white"/>
</mask>
<g mask="url(#mask1_1_4)">
<path d="M166.118 62.65H147.738V240.42H166.118V62.65Z" fill="white"/>
</g>
<mask id="mask2_1_4" style="mask-type:luminance" maskUnits="userSpaceOnUse" x="118" y="211" width="78" height="77">
<path d="M192.068 256.87L164.488 284.48C162.489 286.469 159.783 287.585 156.963 287.585C154.143 287.585 151.437 286.469 149.438 284.48L121.828 256.87C119.833 254.872 118.714 252.163 118.714 249.34C118.714 246.516 119.833 243.809 121.828 241.81L149.438 214.2C151.437 212.211 154.143 211.095 156.963 211.095C159.783 211.095 162.489 212.211 164.488 214.2L192.098 241.81C194.092 243.809 195.213 246.516 195.213 249.34C195.213 252.163 194.092 254.872 192.098 256.87" fill="white"/>
</mask>
<g mask="url(#mask2_1_4)">
<path d="M196.218 210.06H117.648V288.63H196.218V210.06Z" fill="white"/>
</g>
<mask id="mask3_1_4" style="mask-type:luminance" maskUnits="userSpaceOnUse" x="35" y="12" width="78" height="77">
<path d="M109.328 57.8398L81.7179 85.4502C79.7232 87.4287 77.0274 88.5386 74.2179 88.5386C71.4083 88.5386 68.7126 87.4287 66.7179 85.4502L39.108 57.8398C37.1142 55.843 35.9943 53.1367 35.9943 50.3149C35.9943 47.4932 37.1142 44.7868 39.108 42.79L66.7179 15.1802C68.7126 13.2016 71.4083 12.0913 74.2179 12.0913C77.0274 12.0913 79.7232 13.2016 81.7179 15.1802L109.328 42.79C111.322 44.7868 112.442 47.4932 112.442 50.3149C112.442 53.1367 111.322 55.843 109.328 57.8398Z" fill="white"/>
</mask>
<g mask="url(#mask3_1_4)">
<path d="M113.478 11.03H34.908V89.6H113.478V11.03Z" fill="white"/>
</g>
<mask id="mask4_1_4" style="mask-type:luminance" maskUnits="userSpaceOnUse" x="201" y="34" width="77" height="196">
<path d="M230.488 106.7V229.93H248.868V106.7L274.818 80.7002C276.792 78.7029 277.899 76.0082 277.899 73.2002C277.899 70.3922 276.792 67.6975 274.818 65.7002L247.208 38.0898C245.21 36.0954 242.501 34.9756 239.678 34.9756C236.854 34.9756 234.147 36.0954 232.148 38.0898L204.538 65.7002C202.564 67.6975 201.457 70.3922 201.457 73.2002C201.457 76.0082 202.564 78.7029 204.538 80.7002L230.488 106.7Z" fill="white"/>
</mask>
<g mask="url(#mask4_1_4)">
<path d="M278.958 33.94H200.388V229.93H278.958V33.94Z" fill="white"/>
</g>
<mask id="mask5_1_4" style="mask-type:luminance" maskUnits="userSpaceOnUse" x="64" y="107" width="20" height="111">
<path d="M83.3781 107.27H64.9977V217.99H83.3781V107.27Z" fill="white"/>
</mask>
<g mask="url(#mask5_1_4)">
<path d="M83.3781 107.27H64.998V217.99H83.3781V107.27Z" fill="white"/>
</g>
<mask id="mask6_1_4" style="mask-type:luminance" maskUnits="userSpaceOnUse" x="147" y="0" width="20" height="41">
<path d="M166.118 0.959961H147.738V40.1001H166.118V0.959961Z" fill="white"/>
</mask>
<g mask="url(#mask6_1_4)">
<path d="M166.118 0.950012H147.738V40.09H166.118V0.950012Z" fill="white"/>
</g>
<mask id="mask7_1_4" style="mask-type:luminance" maskUnits="userSpaceOnUse" x="230" y="271" width="19" height="104">
<path d="M248.868 271.72H230.488V374.03H248.868V271.72Z" fill="white"/>
</mask>
<g mask="url(#mask7_1_4)">
<path d="M248.868 271.72H230.488V374.03H248.868V271.72Z" fill="white"/>
</g>
<mask id="mask8_1_4" style="mask-type:luminance" maskUnits="userSpaceOnUse" x="64" y="276" width="20" height="52">
<path d="M83.3781 276.78H64.9977V327.62H83.3781V276.78Z" fill="white"/>
</mask>
<g mask="url(#mask8_1_4)">
<path d="M83.3781 276.77H64.998V327.61H83.3781V276.77Z" fill="white"/>
</g>
<mask id="mask9_1_4" style="mask-type:luminance" maskUnits="userSpaceOnUse" x="147" y="391" width="20" height="58">
<path d="M166.118 391.32H147.738V448.27H166.118V391.32Z" fill="white"/>
</mask>
<g mask="url(#mask9_1_4)">
<path d="M166.118 391.31H147.738V448.26H166.118V391.31Z" fill="white"/>
</g>
<mask id="mask10_1_4" style="mask-type:luminance" maskUnits="userSpaceOnUse" x="277" y="335" width="33" height="33">
<path d="M308.368 354.62L296.798 366.2C295.96 367.035 294.825 367.503 293.643 367.503C292.46 367.503 291.326 367.035 290.488 366.2L278.908 354.62C278.073 353.782 277.605 352.648 277.605 351.465C277.605 350.282 278.073 349.148 278.908 348.31L290.488 336.74C291.326 335.905 292.46 335.437 293.643 335.437C294.825 335.437 295.96 335.905 296.798 336.74L308.368 348.31C309.203 349.148 309.672 350.282 309.672 351.465C309.672 352.648 309.203 353.782 308.368 354.62Z" fill="white"/>
</mask>
<g mask="url(#mask10_1_4)">
<path d="M310.108 335H277.168V367.93H310.108V335Z" fill="white"/>
</g>
<mask id="mask11_1_4" style="mask-type:luminance" maskUnits="userSpaceOnUse" x="116" y="296" width="33" height="33">
<path d="M146.858 315.71L135.288 327.31C134.45 328.145 133.316 328.614 132.133 328.614C130.95 328.614 129.816 328.145 128.978 327.31L117.398 315.74C116.566 314.901 116.099 313.767 116.099 312.585C116.099 311.403 116.566 310.269 117.398 309.43L128.978 297.85C129.817 297.018 130.951 296.551 132.133 296.551C133.315 296.551 134.449 297.018 135.288 297.85L146.858 309.43C147.693 310.268 148.161 311.402 148.161 312.585C148.161 313.768 147.693 314.902 146.858 315.74" fill="white"/>
</mask>
<g mask="url(#mask11_1_4)">
<path d="M148.598 296.08H115.658V329.02H148.598V296.08Z" fill="white"/>
</g>
<mask id="mask12_1_4" style="mask-type:luminance" maskUnits="userSpaceOnUse" x="19" y="153" width="20" height="20">
<path d="M37.5978 164.69L30.6779 171.61C30.1757 172.109 29.496 172.39 28.7877 172.39C28.0794 172.39 27.4003 172.109 26.8981 171.61L19.9679 164.69C19.4684 164.188 19.1881 163.509 19.1881 162.8C19.1881 162.092 19.4684 161.412 19.9679 160.91L26.8981 153.98C27.4003 153.48 28.0794 153.2 28.7877 153.2C29.496 153.2 30.1757 153.48 30.6779 153.98L37.5978 160.91C38.0973 161.412 38.3781 162.092 38.3781 162.8C38.3781 163.509 38.0973 164.188 37.5978 164.69Z" fill="white"/>
</mask>
<g mask="url(#mask12_1_4)">
<path d="M38.6381 152.94H18.928V172.65H38.6381V152.94Z" fill="white"/>
</g>
<mask id="mask13_1_4" style="mask-type:luminance" maskUnits="userSpaceOnUse" x="23" y="363" width="26" height="26">
<path d="M46.9879 378.24L37.9879 387.24C37.3358 387.889 36.453 388.253 35.5328 388.253C34.6127 388.253 33.7299 387.889 33.0778 387.24L24.0778 378.24C23.4286 377.588 23.0646 376.705 23.0646 375.785C23.0646 374.865 23.4286 373.982 24.0778 373.33L33.0778 364.33C33.7299 363.681 34.6127 363.316 35.5328 363.316C36.453 363.316 37.3358 363.681 37.9879 364.33L46.9879 373.33C47.637 373.982 48.0016 374.865 48.0016 375.785C48.0016 376.705 47.637 377.588 46.9879 378.24Z" fill="white"/>
</mask>
<g mask="url(#mask13_1_4)">
<path d="M48.338 362.96H22.688V388.61H48.338V362.96Z" fill="white"/>
</g>
<mask id="mask14_1_4" style="mask-type:luminance" maskUnits="userSpaceOnUse" x="274" y="136" width="24" height="23">
<path d="M296.338 149.76L288.158 157.94C287.566 158.53 286.764 158.861 285.928 158.861C285.092 158.861 284.29 158.53 283.698 157.94L275.518 149.76C274.928 149.168 274.597 148.366 274.597 147.53C274.597 146.694 274.928 145.893 275.518 145.3L283.698 137.12C284.29 136.53 285.092 136.199 285.928 136.199C286.764 136.199 287.566 136.53 288.158 137.12L296.338 145.3C296.925 145.894 297.255 146.695 297.255 147.53C297.255 148.365 296.925 149.167 296.338 149.76Z" fill="white"/>
</mask>
<g mask="url(#mask14_1_4)">
<path d="M297.558 135.89H274.288V159.16H297.558V135.89Z" fill="white"/>
</g>
<path d="M422.631 289.314H444.341V217.764L422.631 232.684V289.314ZM394.631 231.614L361.381 181.614H344.711V289.334H366.421V228.094L394.591 270.414L444.321 195.464V181.594H427.711L394.631 231.614ZM518.711 214.064L533.951 251.004H500.231L528.711 181.594H505.471L461.281 289.314H484.371L492.531 270.234H541.801L549.801 289.314H572.901L536.101 199.144L518.711 214.064ZM647.561 200.374V181.594H619.081L628.471 200.374H647.561ZM561.971 200.374H593.711V289.314H615.881V181.594H562.001L561.971 200.374ZM727.921 257.314L709.921 269.004L726.401 289.314H753.801L727.921 257.314ZM686.201 257.464C693.295 257.464 699.068 257.491 703.521 257.544C707.991 257.594 711.731 257.544 714.761 257.384C717.353 257.294 719.932 256.959 722.461 256.384C724.817 255.784 727.111 254.96 729.311 253.924C735.739 250.983 741.207 246.29 745.091 240.384C749.157 234.284 751.277 227.094 751.171 219.764C751.197 214.661 750.176 209.607 748.171 204.914C746.257 200.374 743.487 196.245 740.011 192.754C736.557 189.307 732.486 186.539 728.011 184.594C723.374 182.58 718.367 181.558 713.311 181.594H664.511V289.314H686.211L686.201 257.464ZM686.201 200.524H713.301C715.515 200.515 717.701 201.014 719.691 201.984C721.669 202.948 723.444 204.283 724.921 205.914C726.418 207.564 727.615 209.463 728.461 211.524C729.325 213.596 729.771 215.819 729.771 218.064C729.771 223.504 728.181 227.837 725.001 231.064C723.491 232.636 721.672 233.879 719.659 234.713C717.645 235.548 715.48 235.957 713.301 235.914H686.201V200.524ZM768.411 289.314H790.891V181.594H768.411V289.314ZM805.511 289.314H831.711L854.181 257.004L834.791 247.154L805.511 289.314ZM868.941 235.314L906.201 181.604H879.871L856.011 220.844L832.011 181.604H805.811L842.911 235.314L856.001 254.244L880.171 289.324H906.501L868.941 235.314ZM361.091 165.244H397.261C398.454 165.251 399.636 165.02 400.739 164.566C401.842 164.112 402.844 163.442 403.686 162.598C404.528 161.753 405.193 160.749 405.644 159.644C406.095 158.54 406.322 157.357 406.311 156.164V143.974C406.322 142.781 406.095 141.598 405.644 140.494C405.193 139.389 404.528 138.385 403.686 137.54C402.844 136.696 401.842 136.027 400.739 135.572C399.636 135.118 398.454 134.887 397.261 134.894H361.091C360.708 134.9 360.328 134.83 359.972 134.687C359.617 134.545 359.294 134.333 359.021 134.064C358.741 133.802 358.518 133.484 358.368 133.131C358.218 132.778 358.144 132.398 358.151 132.014V119.834C358.146 119.446 358.22 119.061 358.37 118.704C358.519 118.346 358.741 118.022 359.021 117.754C359.287 117.474 359.609 117.252 359.965 117.102C360.321 116.953 360.705 116.879 361.091 116.884H397.261C397.649 116.879 398.033 116.953 398.391 117.103C398.749 117.253 399.072 117.474 399.341 117.754C399.618 118.024 399.837 118.348 399.984 118.706C400.132 119.064 400.206 119.447 400.201 119.834V121.954H406.311V119.834C406.322 118.641 406.095 117.458 405.644 116.353C405.193 115.249 404.528 114.245 403.686 113.4C402.844 112.555 401.842 111.886 400.739 111.432C399.636 110.978 398.454 110.747 397.261 110.754H361.091C359.902 110.754 358.726 110.989 357.629 111.447C356.531 111.904 355.536 112.574 354.699 113.418C353.862 114.263 353.201 115.264 352.753 116.365C352.305 117.466 352.08 118.645 352.091 119.834V132.014C352.079 133.204 352.303 134.383 352.75 135.486C353.197 136.588 353.858 137.591 354.695 138.436C355.532 139.281 356.528 139.953 357.626 140.411C358.724 140.868 359.901 141.104 361.091 141.104H397.261C397.645 141.096 398.028 141.166 398.385 141.309C398.742 141.451 399.067 141.664 399.341 141.934C399.612 142.192 399.829 142.502 399.977 142.846C400.125 143.189 400.201 143.56 400.201 143.934V156.124C400.206 156.511 400.132 156.895 399.984 157.252C399.837 157.61 399.618 157.934 399.341 158.204C399.072 158.484 398.749 158.705 398.391 158.855C398.033 159.005 397.649 159.079 397.261 159.074H361.091C360.705 159.08 360.321 159.005 359.965 158.855C359.609 158.706 359.287 158.484 359.021 158.204C358.741 157.935 358.519 157.612 358.37 157.254C358.22 156.897 358.146 156.512 358.151 156.124V154.004H352.051V156.124C352.04 157.313 352.265 158.492 352.713 159.593C353.161 160.694 353.822 161.695 354.659 162.539C355.496 163.384 356.491 164.054 357.589 164.511C358.686 164.968 359.862 165.204 361.051 165.204L361.091 165.244ZM480.711 117.704L505.511 147.294L530.301 117.704V165.234H536.411V110.744H528.041L505.511 137.684L482.971 110.744H474.611V165.234H480.711V117.704ZM611.091 145.334H653.141V165.234H659.251V119.824C659.262 118.631 659.035 117.448 658.585 116.344C658.134 115.239 657.468 114.235 656.626 113.391C655.784 112.546 654.782 111.877 653.679 111.422C652.576 110.968 651.394 110.737 650.201 110.744H614.031C612.842 110.744 611.666 110.979 610.568 111.436C609.471 111.894 608.476 112.564 607.639 113.408C606.802 114.252 606.141 115.254 605.693 116.355C605.245 117.457 605.02 118.636 605.031 119.824V165.234H611.131L611.091 145.334ZM611.091 119.824C611.091 119.039 611.399 118.284 611.948 117.724C612.498 117.163 613.246 116.84 614.031 116.824H650.201C650.589 116.819 650.974 116.893 651.332 117.043C651.689 117.193 652.012 117.414 652.281 117.694C652.557 117.964 652.777 118.288 652.924 118.646C653.072 119.003 653.146 119.387 653.141 119.774V139.144H611.091V119.824ZM734.161 144.644C735.135 144.801 736.116 144.904 737.101 144.954H756.991L773.991 165.234H782.051L765.051 144.954H773.341C774.534 144.976 775.719 144.751 776.821 144.295C777.924 143.839 778.922 143.162 779.751 142.304C780.604 141.465 781.276 140.462 781.729 139.354C782.181 138.247 782.403 137.06 782.381 135.864V119.864C782.392 118.676 782.166 117.497 781.719 116.395C781.271 115.294 780.61 114.292 779.774 113.448C778.937 112.604 777.941 111.934 776.844 111.476C775.747 111.019 774.57 110.784 773.381 110.784H728.161V165.204H734.271L734.161 144.644ZM734.161 119.894C734.158 119.507 734.232 119.124 734.38 118.767C734.527 118.409 734.745 118.085 735.021 117.814C735.29 117.534 735.613 117.313 735.971 117.163C736.329 117.013 736.713 116.939 737.101 116.944H773.271C773.647 116.941 774.019 117.018 774.363 117.167C774.708 117.317 775.017 117.537 775.271 117.814C775.541 118.088 775.753 118.413 775.896 118.77C776.038 119.128 776.108 119.509 776.101 119.894V135.894C776.108 136.272 776.039 136.648 775.898 136.999C775.756 137.351 775.546 137.67 775.279 137.938C775.013 138.207 774.695 138.419 774.345 138.562C773.995 138.706 773.619 138.778 773.241 138.774H737.071C736.687 138.779 736.305 138.709 735.948 138.566C735.591 138.424 735.266 138.212 734.991 137.944C734.713 137.68 734.493 137.362 734.345 137.009C734.197 136.656 734.124 136.277 734.131 135.894L734.161 119.894ZM871.991 165.234H878.101V116.894H902.101V110.764H847.841V116.894H871.951L871.991 165.234ZM591.491 312.614H600.861V338.024H602.861V312.614H612.231V310.784H591.491V312.614ZM620.301 325.224H635.711V323.394H620.311V312.614H637.441V310.784H618.311V338.024H637.711V336.194H620.391L620.301 325.224ZM661.361 335.574C659.779 336.325 658.042 336.695 656.291 336.654C654.74 336.671 653.203 336.347 651.791 335.704C650.43 335.087 649.208 334.199 648.201 333.094C647.167 331.958 646.352 330.639 645.801 329.204C645.205 327.674 644.907 326.045 644.921 324.404V324.324C644.909 322.691 645.2 321.07 645.781 319.544C646.326 318.117 647.134 316.804 648.161 315.674C649.165 314.571 650.388 313.689 651.751 313.084C653.168 312.457 654.702 312.14 656.251 312.154C657.187 312.145 658.12 312.249 659.031 312.464C659.851 312.657 660.649 312.935 661.411 313.294C662.14 313.645 662.83 314.071 663.471 314.564C664.114 315.058 664.729 315.589 665.311 316.154L666.731 314.674C666.054 314.045 665.343 313.454 664.601 312.904C663.866 312.371 663.083 311.909 662.261 311.524C661.394 311.126 660.485 310.828 659.551 310.634C658.478 310.416 657.386 310.312 656.291 310.324C654.439 310.304 652.604 310.683 650.911 311.434C649.309 312.142 647.865 313.162 646.661 314.434C645.456 315.743 644.506 317.266 643.861 318.924C643.184 320.66 642.845 322.51 642.861 324.374V324.454C642.852 326.327 643.191 328.185 643.861 329.934C644.494 331.587 645.442 333.102 646.651 334.394C647.884 335.691 649.371 336.721 651.019 337.419C652.667 338.118 654.441 338.47 656.231 338.454C657.328 338.467 658.422 338.349 659.491 338.104C660.456 337.879 661.392 337.543 662.281 337.104C663.139 336.693 663.951 336.19 664.701 335.604C665.474 335.006 666.211 334.365 666.911 333.684L665.561 332.354C664.359 333.646 662.954 334.734 661.401 335.574H661.361ZM691.581 323.434H674.381V310.784H672.381V338.024H674.381V325.264H691.581V338.024H693.581V310.784H691.581V323.434ZM722.001 334.484L703.451 310.784H701.571V338.024H703.491V313.824L722.431 338.024H723.921V310.784H722.001V334.484ZM754.081 314.544C752.879 313.243 751.427 312.199 749.811 311.474C747.252 310.303 744.388 309.971 741.63 310.526C738.871 311.081 736.358 312.495 734.451 314.564C733.264 315.877 732.332 317.4 731.701 319.054C731.041 320.761 730.702 322.574 730.701 324.404V324.484C730.706 326.307 731.045 328.113 731.701 329.814C732.318 331.458 733.244 332.969 734.431 334.264C736.365 336.287 738.873 337.667 741.616 338.218C744.36 338.769 747.207 338.464 749.771 337.344C751.398 336.614 752.858 335.559 754.061 334.244C755.247 332.932 756.176 331.409 756.801 329.754C757.466 328.049 757.805 326.234 757.801 324.404C757.801 324.404 757.801 324.354 757.801 324.324C757.796 322.501 757.457 320.695 756.801 318.994C756.196 317.355 755.287 315.845 754.121 314.544H754.081ZM755.691 324.484C755.705 326.103 755.417 327.711 754.841 329.224C754.31 330.654 753.509 331.968 752.481 333.094C750.878 334.801 748.784 335.967 746.489 336.431C744.194 336.895 741.811 336.634 739.671 335.684C738.298 335.062 737.064 334.171 736.041 333.064C735.014 331.926 734.207 330.607 733.661 329.174C733.08 327.651 732.788 326.033 732.801 324.404V324.324C732.789 322.706 733.074 321.099 733.641 319.584C734.172 318.154 734.973 316.84 736.001 315.714C737.017 314.61 738.245 313.723 739.611 313.104C741.062 312.471 742.628 312.144 744.211 312.144C745.794 312.144 747.36 312.471 748.811 313.104C750.184 313.725 751.419 314.617 752.441 315.724C753.472 316.859 754.279 318.179 754.821 319.614C755.406 321.136 755.701 322.754 755.691 324.384V324.484ZM766.561 310.784H764.561V338.024H782.341V336.194H766.561V310.784ZM808.961 314.544C807.761 313.246 806.312 312.202 804.701 311.474C802.14 310.305 799.276 309.975 796.516 310.53C793.756 311.085 791.242 312.496 789.331 314.564C788.147 315.878 787.218 317.4 786.591 319.054C785.931 320.761 785.592 322.574 785.591 324.404V324.484C785.595 326.307 785.934 328.113 786.591 329.814C787.207 331.458 788.134 332.969 789.321 334.264C790.558 335.624 792.072 336.704 793.76 337.432C795.448 338.159 797.273 338.518 799.111 338.484C801.021 338.507 802.915 338.118 804.661 337.344C806.286 336.617 807.743 335.561 808.941 334.244C810.133 332.935 811.067 331.411 811.691 329.754C812.351 328.047 812.69 326.233 812.691 324.404C812.701 324.393 812.706 324.379 812.706 324.364C812.706 324.349 812.701 324.335 812.691 324.324C812.686 322.501 812.347 320.695 811.691 318.994C811.087 317.353 810.174 315.842 809.001 314.544H808.961ZM810.581 324.484C810.59 326.102 810.302 327.709 809.731 329.224C809.2 330.654 808.399 331.968 807.371 333.094C805.768 334.801 803.674 335.967 801.379 336.431C799.084 336.895 796.701 336.634 794.561 335.684C793.188 335.062 791.954 334.171 790.931 333.064C789.9 331.928 789.092 330.609 788.551 329.174C787.966 327.652 787.671 326.034 787.681 324.404V324.324C787.667 322.705 787.955 321.097 788.531 319.584C789.062 318.154 789.863 316.84 790.891 315.714C791.93 314.576 793.197 313.67 794.61 313.057C796.023 312.443 797.55 312.135 799.091 312.154C800.682 312.145 802.257 312.486 803.701 313.154C805.074 313.775 806.309 314.666 807.331 315.774C808.359 316.912 809.166 318.231 809.711 319.664C810.296 321.186 810.591 322.804 810.581 324.434V324.484ZM831.431 325.764H840.431V333.554C839.903 333.999 839.337 334.397 838.741 334.744C838.082 335.131 837.393 335.466 836.681 335.744C835.929 336.038 835.153 336.265 834.361 336.424C833.538 336.592 832.701 336.676 831.861 336.674C830.207 336.701 828.566 336.385 827.041 335.744C825.664 335.156 824.427 334.284 823.411 333.184C822.389 332.06 821.612 330.735 821.131 329.294C820.591 327.721 820.323 326.067 820.341 324.404V324.324C820.334 322.735 820.608 321.157 821.151 319.664C821.662 318.24 822.436 316.924 823.431 315.784C824.415 314.676 825.612 313.778 826.951 313.144C828.353 312.474 829.888 312.132 831.441 312.144C833.172 312.088 834.894 312.405 836.491 313.074C837.796 313.669 839.006 314.454 840.081 315.404L841.391 313.894C840.744 313.336 840.055 312.828 839.331 312.374C838.627 311.93 837.884 311.552 837.111 311.244C836.29 310.925 835.439 310.69 834.571 310.544C833.579 310.386 832.576 310.309 831.571 310.314C829.687 310.291 827.822 310.687 826.111 311.474C824.515 312.221 823.087 313.282 821.911 314.594C820.73 315.901 819.816 317.426 819.221 319.084C818.592 320.783 818.274 322.582 818.281 324.394V324.474C818.265 326.321 818.577 328.156 819.201 329.894C819.782 331.541 820.682 333.057 821.851 334.354C823.038 335.641 824.482 336.664 826.091 337.354C827.896 338.12 829.841 338.498 831.801 338.464C833.865 338.488 835.91 338.072 837.801 337.244C839.453 336.529 840.987 335.568 842.351 334.394V323.894H831.441L831.431 325.764ZM849.831 338.024H851.831V310.784H849.831V338.024ZM862.081 325.224H877.481V323.394H862.081V312.614H879.211V310.784H860.081V338.024H879.401V336.194H862.081V325.224ZM901.761 326.134C900.368 324.954 898.114 324.041 895.001 323.394C893.669 323.129 892.359 322.765 891.081 322.304C890.217 322.002 889.407 321.562 888.681 321.004C888.151 320.584 887.741 320.032 887.491 319.404C887.258 318.763 887.147 318.085 887.161 317.404V317.324C887.159 316.631 887.316 315.946 887.621 315.324C887.938 314.686 888.393 314.126 888.951 313.684C889.568 313.191 890.269 312.815 891.021 312.574C891.896 312.292 892.812 312.154 893.731 312.164C896.697 312.113 899.566 313.218 901.731 315.244L903.001 313.644C901.751 312.599 900.344 311.759 898.831 311.154C897.226 310.587 895.533 310.313 893.831 310.344C892.656 310.331 891.487 310.514 890.371 310.884C889.374 311.216 888.448 311.731 887.641 312.404C886.89 313.027 886.276 313.8 885.841 314.674C885.4 315.548 885.174 316.515 885.181 317.494V317.574C885.165 318.518 885.335 319.456 885.681 320.334C886.034 321.16 886.583 321.888 887.281 322.454C888.129 323.135 889.081 323.675 890.101 324.054C891.45 324.562 892.838 324.96 894.251 325.244C895.53 325.471 896.788 325.805 898.011 326.244C898.849 326.538 899.636 326.963 900.341 327.504C900.866 327.912 901.276 328.45 901.531 329.064C901.756 329.685 901.865 330.343 901.851 331.004V331.084C901.86 331.832 901.692 332.573 901.361 333.244C901.022 333.905 900.548 334.487 899.971 334.954C899.332 335.463 898.603 335.847 897.821 336.084C896.928 336.363 895.997 336.502 895.061 336.494C894.132 336.499 893.204 336.412 892.291 336.234C891.46 336.075 890.649 335.827 889.871 335.494C889.079 335.163 888.324 334.747 887.621 334.254C886.844 333.706 886.109 333.101 885.421 332.444L884.111 333.964C885.584 335.325 887.274 336.43 889.111 337.234C890.96 337.977 892.939 338.344 894.931 338.314C896.149 338.327 897.361 338.145 898.521 337.774C899.544 337.447 900.497 336.931 901.331 336.254C902.106 335.612 902.734 334.81 903.171 333.904C903.621 332.968 903.85 331.942 903.841 330.904V330.894C903.878 329.999 903.714 329.106 903.361 328.283C903.008 327.459 902.475 326.725 901.801 326.134H901.761Z" fill="white"/>
</svg>
