<?xml version="1.0" standalone="no"?>
<!DOCTYPE svg PUBLIC "-//W3C//DTD SVG 20010904//EN"
 "http://www.w3.org/TR/2001/REC-SVG-20010904/DTD/svg10.dtd">
<svg version="1.0" xmlns="http://www.w3.org/2000/svg"
 width="512.000000pt" height="512.000000pt" viewBox="0 0 512.000000 512.000000"
 preserveAspectRatio="xMidYMid meet">

<g transform="translate(0.000000,512.000000) scale(0.100000,-0.100000)"
fill="#000000" stroke="none">
<path d="M1695 4466 c-41 -18 -83 -69 -90 -109 -3 -18 -5 -262 -3 -544 3 -499
4 -512 24 -539 11 -15 33 -37 48 -48 26 -20 42 -21 377 -24 l349 -3 0 -319 0
-320 -749 -2 c-739 -3 -750 -3 -777 -24 -69 -51 -68 -47 -74 -356 l-5 -281
-35 -12 c-276 -96 -456 -360 -437 -646 10 -157 73 -294 187 -409 76 -75 148
-121 252 -158 63 -22 89 -26 193 -27 97 0 133 4 190 22 313 99 504 418 441
732 -30 149 -110 285 -219 372 -49 39 -180 109 -226 122 -20 5 -21 11 -21 176
l0 171 640 0 640 0 0 -171 c0 -164 -1 -171 -20 -176 -12 -3 -53 -21 -91 -39
-344 -165 -470 -576 -277 -902 42 -72 148 -178 220 -220 31 -18 89 -45 130
-60 63 -22 89 -26 193 -27 97 0 133 4 190 22 313 99 504 418 441 732 -30 149
-110 285 -219 372 -49 39 -180 109 -226 122 -20 5 -21 11 -21 176 l0 171 640
0 640 0 0 -171 c0 -164 -1 -171 -20 -176 -12 -3 -53 -21 -91 -39 -344 -165
-470 -576 -277 -902 42 -72 148 -178 220 -220 31 -18 89 -45 130 -60 63 -22
89 -26 193 -27 97 0 133 4 190 22 313 99 504 418 441 732 -47 231 -203 409
-426 486 l-35 12 -5 281 c-6 309 -5 305 -74 356 -27 21 -38 21 -777 24 l-749
2 0 320 0 319 349 3 c335 3 351 4 377 24 15 11 37 33 48 48 21 27 21 38 21
566 0 528 0 539 -21 566 -11 15 -33 37 -48 48 -27 21 -36 21 -874 23 -689 2
-853 0 -877 -11z m1505 -626 l0 -320 -640 0 -640 0 0 320 0 320 640 0 640 0 0
-320z m-2104 -2270 c62 -30 123 -92 155 -155 34 -71 34 -198 -1 -270 -31 -63
-92 -124 -155 -156 -41 -20 -65 -24 -135 -24 -70 0 -94 4 -135 24 -178 88
-238 304 -130 468 38 57 105 109 169 129 61 20 172 12 232 -16z m1600 0 c62
-30 123 -92 155 -155 34 -71 34 -198 -1 -270 -31 -63 -92 -124 -155 -156 -41
-20 -65 -24 -135 -24 -70 0 -94 4 -135 24 -178 88 -238 304 -130 468 38 57
105 109 169 129 61 20 172 12 232 -16z m1600 0 c62 -30 123 -92 155 -155 34
-71 34 -198 -1 -270 -31 -63 -92 -124 -155 -156 -41 -20 -65 -24 -135 -24 -70
0 -94 4 -135 24 -178 88 -238 304 -130 468 38 57 105 109 169 129 61 20 172
12 232 -16z"/>
</g>
</svg>
